<svg width="48" height="48" viewBox="0 0 48 48" fill="none" xmlns="http://www.w3.org/2000/svg">
<g clip-path="url(#clip0_445_5078)">
<path d="M9.16879 4.58058C9.30138 4.58034 9.43397 4.58006 9.56656 4.57974C9.93006 4.57898 10.2936 4.57881 10.6571 4.57874C11.0495 4.57857 11.4419 4.57786 11.8343 4.57723C12.692 4.57596 13.5497 4.57539 14.4074 4.57498C14.9434 4.57472 15.4794 4.57432 16.0154 4.5739C17.5005 4.57276 18.9856 4.57179 20.4707 4.57148C20.5657 4.57146 20.6607 4.57143 20.7586 4.57141C20.8538 4.57139 20.949 4.57137 21.0471 4.57135C21.2401 4.57131 21.433 4.57127 21.6259 4.57123C21.7217 4.57121 21.8174 4.57118 21.916 4.57116C23.4657 4.57079 25.0155 4.56916 26.5653 4.56697C28.1579 4.56475 29.7505 4.56358 31.3431 4.56347C32.2366 4.56339 33.1302 4.56285 34.0238 4.56115C34.7849 4.5597 35.546 4.55922 36.3072 4.56C36.6951 4.56036 37.0829 4.56028 37.4708 4.55896C37.8269 4.55776 38.1829 4.55789 38.5389 4.55902C38.7268 4.55928 38.9146 4.55818 39.1025 4.55701C41.6753 4.57086 43.8741 5.67396 45.674 7.47704C47.0829 8.94302 47.9836 11.0336 48.0216 13.0668C48.0238 13.184 48.026 13.3011 48.0283 13.4218C48.0301 13.5511 48.0318 13.6803 48.0335 13.8096C48.0344 13.8772 48.0353 13.9449 48.0362 14.0146C48.043 14.5508 48.0467 15.087 48.0491 15.6233C48.0494 15.7047 48.0498 15.7861 48.0501 15.87C48.0664 20.5664 47.7172 25.2427 47.3843 29.9247C47.2986 31.1315 47.2166 32.3385 47.1346 33.5455C47.0637 34.5876 46.9917 35.6296 46.9197 36.6716C46.9121 36.7814 46.9045 36.8912 46.8967 37.0043C46.8533 37.6335 46.8093 38.2626 46.7646 38.8917C46.7512 39.0807 46.738 39.2697 46.7249 39.4587C46.6672 40.2919 46.6076 41.125 46.51 41.9546C46.4976 42.0621 46.4851 42.1696 46.4723 42.2803C46.3667 42.7314 46.1215 43.0423 45.75 43.3125C45.3551 43.5103 44.9936 43.5265 44.5604 43.5239C44.4882 43.5242 44.416 43.5245 44.3415 43.5248C44.0986 43.5255 43.8557 43.525 43.6128 43.5244C43.4373 43.5247 43.2617 43.5251 43.0861 43.5255C42.603 43.5265 42.1199 43.5263 41.6367 43.5259C41.116 43.5257 40.5952 43.5265 40.0744 43.5272C39.0539 43.5284 38.0334 43.5286 37.0129 43.5283C36.1837 43.5282 35.3544 43.5283 34.5252 43.5287C34.3483 43.5288 34.3483 43.5288 34.1679 43.5289C33.9284 43.529 33.6889 43.5291 33.4494 43.5292C31.8408 43.53 30.2322 43.5303 28.6235 43.53C28.5291 43.5299 28.5291 43.5299 28.4328 43.5299C28.1139 43.5298 27.795 43.5298 27.4761 43.5297C27.3811 43.5297 27.3811 43.5297 27.2842 43.5296C27.1561 43.5296 27.028 43.5296 26.8999 43.5295C24.9067 43.529 22.9134 43.5298 20.9201 43.5315C18.6812 43.5335 16.4423 43.5345 14.2033 43.5341C13.0176 43.5339 11.832 43.5341 10.6463 43.5355C9.63698 43.5366 8.62767 43.5367 7.61835 43.5356C7.10316 43.535 6.58797 43.5349 6.07279 43.536C5.60143 43.5371 5.13009 43.5368 4.65874 43.5355C4.48796 43.5352 4.31719 43.5354 4.14641 43.5362C3.91471 43.5371 3.68307 43.5363 3.45137 43.5351C3.3847 43.5358 3.31802 43.5365 3.24933 43.5372C2.73883 43.5316 2.35898 43.4057 1.98157 43.0576C1.93673 43.0025 1.8919 42.9474 1.8457 42.8906C1.79966 42.8355 1.75362 42.7804 1.70618 42.7236C1.4937 42.4191 1.4797 42.121 1.45497 41.7608C1.44733 41.6522 1.43969 41.5436 1.43182 41.4317C1.41976 41.2523 1.41976 41.2523 1.40746 41.0692C1.39863 40.9418 1.38976 40.8143 1.38085 40.6869C1.35655 40.3377 1.3327 39.9885 1.30892 39.6392C1.28339 39.2654 1.25747 38.8916 1.23157 38.5178C1.22085 38.3629 1.21013 38.208 1.1994 38.0532C1.19402 37.9754 1.18863 37.8976 1.18308 37.8175C1.16642 37.5766 1.14981 37.3357 1.13321 37.0948C1.05609 35.9765 0.976795 34.8583 0.896255 33.7402C0.791722 32.2887 0.689537 30.837 0.589426 29.3852C0.532663 28.5629 0.474916 27.7408 0.414848 26.9187C0.152176 23.3166 -0.0458586 19.7268 -0.0478077 16.114C-0.0479719 15.8665 -0.0485484 15.6189 -0.0491503 15.3713C-0.0497995 14.9835 -0.0486105 14.5957 -0.0459001 14.2079C-0.0450294 14.067 -0.0445514 13.9261 -0.0445254 13.7852C-0.041089 11.0852 0.9755 8.8242 2.88329 6.91971C4.59788 5.27194 6.83444 4.57904 9.16879 4.58058Z" fill="#F19B1F"/>
<path d="M15.0041 4.55588C15.2203 4.55534 15.4365 4.55469 15.6527 4.55393C16.2367 4.55225 16.8208 4.55236 17.4048 4.55289C17.894 4.55318 18.3832 4.55261 18.8724 4.55204C20.0934 4.55065 21.3144 4.55099 22.5355 4.55213C23.5918 4.55306 24.6481 4.55184 25.7044 4.5496C26.7931 4.5473 27.8819 4.54645 28.9707 4.54704C29.5803 4.54735 30.1899 4.54714 30.7995 4.54551C31.3733 4.54405 31.9471 4.54444 32.5209 4.5462C32.7302 4.54654 32.9394 4.54626 33.1486 4.54527C34.7361 4.53835 36.2956 4.64971 37.7637 5.31446C37.8367 5.34657 37.9098 5.37868 37.9851 5.41176C40.4558 6.53198 42.3716 8.61933 43.3381 11.1499C44.1936 13.5825 43.875 16.0598 43.875 18.6563C30.7575 18.6563 17.64 18.6563 4.125 18.6563C4.125 10.4154 4.125 10.4154 7.06055 7.42384C8.3031 6.20459 9.85808 5.3452 11.5312 4.87501C11.6187 4.85005 11.7061 4.82508 11.7962 4.79937C12.861 4.53379 13.913 4.55343 15.0041 4.55588Z" fill="#AE7F65"/>
<path d="M6.42708 23.6137C6.59312 23.6135 6.59312 23.6135 6.76251 23.6133C6.94559 23.6138 6.94559 23.6138 7.13237 23.6143C7.26171 23.6144 7.39104 23.6143 7.52038 23.6143C7.87212 23.6143 8.22385 23.6148 8.57558 23.6155C8.94294 23.6161 9.31029 23.6161 9.67765 23.6162C10.3736 23.6165 11.0695 23.6173 11.7654 23.6182C12.5576 23.6193 13.3497 23.6198 14.1419 23.6203C15.7717 23.6212 17.4015 23.6229 19.0313 23.625C19.033 23.6946 19.0348 23.7642 19.0366 23.836C19.0452 24.1552 19.0553 24.4744 19.0653 24.7936C19.0681 24.9031 19.0708 25.0126 19.0737 25.1255C19.1138 26.3342 19.393 27.351 20.1563 28.3125C20.2195 28.3984 20.2195 28.3984 20.2841 28.4861C20.9074 29.2832 21.8771 29.9075 22.875 30.0937C24.4602 30.2682 25.8533 30.0994 27.1373 29.0896C27.8897 28.4102 28.3679 27.6788 28.6875 26.7187C28.7191 26.6308 28.7507 26.5428 28.7833 26.4522C28.9353 25.9165 28.9191 25.3555 28.9336 24.8027C28.939 24.6328 28.939 24.6328 28.9446 24.4594C28.9534 24.1813 28.9614 23.9031 28.9688 23.625C30.6719 23.614 32.3751 23.6058 34.0783 23.6007C34.8692 23.5983 35.66 23.595 36.4508 23.5896C37.1401 23.5849 37.8293 23.5819 38.5186 23.5809C38.8836 23.5803 39.2485 23.5788 39.6135 23.5754C39.9571 23.5722 40.3006 23.5712 40.6442 23.572C40.8303 23.5718 41.0164 23.5692 41.2025 23.5667C42.112 23.5719 42.112 23.5719 42.4009 23.8568C42.4809 23.9741 42.4809 23.9741 42.5625 24.0937C42.5934 24.1247 42.6244 24.1556 42.6563 24.1875C42.704 25 42.6298 25.8167 42.5669 26.6264C42.5574 26.7536 42.5479 26.8807 42.5385 27.0078C42.5183 27.2785 42.4979 27.5492 42.4774 27.8199C42.4226 28.5413 42.3688 29.2627 42.3157 29.9842C42.3102 30.0581 42.3048 30.1319 42.2992 30.2079C42.2181 31.3123 42.1469 32.417 42.0828 33.5226C42.0746 33.6621 42.0664 33.8017 42.0582 33.9412C42.0231 34.5396 41.9887 35.138 41.957 35.7366C41.9408 36.0382 41.923 36.3397 41.9055 36.6412C41.9003 36.749 41.895 36.8568 41.8896 36.9679C41.8585 37.484 41.833 37.9048 41.5313 38.3437C41.2014 38.5636 41.0683 38.5549 40.6779 38.5556C40.4972 38.5566 40.4972 38.5566 40.3129 38.5576C40.1785 38.5574 40.044 38.5572 39.9096 38.5569C39.7674 38.5573 39.6252 38.5578 39.4829 38.5584C39.0911 38.5597 38.6993 38.5599 38.3075 38.5599C37.8853 38.56 37.4632 38.5612 37.041 38.5623C36.1174 38.5645 35.1939 38.5652 34.2704 38.5657C33.694 38.566 33.1177 38.5666 32.5413 38.5673C30.9464 38.5691 29.3514 38.5706 27.7565 38.5709C27.6033 38.5709 27.6033 38.5709 27.447 38.571C27.24 38.571 27.033 38.571 26.826 38.5711C26.7232 38.5711 26.6204 38.5711 26.5145 38.5711C26.3602 38.5711 26.3602 38.5711 26.2027 38.5712C24.5347 38.5715 22.8667 38.574 21.1987 38.5775C19.4872 38.5811 17.7758 38.5829 16.0643 38.583C15.1029 38.583 14.1416 38.5838 13.1802 38.5865C12.3618 38.5888 11.5433 38.5895 10.7249 38.5881C10.3071 38.5874 9.88933 38.5875 9.47155 38.5896C9.08928 38.5915 8.70708 38.5913 8.32482 38.5894C8.18634 38.589 8.04786 38.5895 7.90939 38.5908C7.7215 38.5925 7.53358 38.5911 7.34569 38.5894C7.24122 38.5895 7.13675 38.5896 7.02911 38.5897C6.6582 38.512 6.51782 38.3518 6.28125 38.0625C6.18383 37.7702 6.16441 37.539 6.14742 37.2319C6.14075 37.116 6.13409 37.0002 6.12721 36.8808C6.12376 36.8179 6.12031 36.755 6.11675 36.6902C6.09751 36.3411 6.07688 35.992 6.05644 35.6429C6.05204 35.5671 6.04763 35.4913 6.04309 35.4133C5.98723 34.4581 5.92456 33.5035 5.86194 32.5488C5.85591 32.4567 5.84987 32.3646 5.84365 32.2697C5.81274 31.7983 5.78175 31.3269 5.75068 30.8555C5.71877 30.3711 5.68711 29.8867 5.65551 29.4022C5.63079 29.0239 5.60589 28.6456 5.58095 28.2672C5.56919 28.0884 5.55749 27.9096 5.54586 27.7308C5.52969 27.4826 5.51327 27.2343 5.49681 26.9861C5.49218 26.9142 5.48755 26.8423 5.48278 26.7682C5.45429 26.3434 5.41411 25.9212 5.36436 25.4983C5.23881 24.3659 5.23881 24.3659 5.51953 23.8886C5.83674 23.6181 6.01623 23.6133 6.42708 23.6137Z" fill="#805333"/>
<path d="M4.21875 12.8438C17.2744 12.8438 30.33 12.8438 43.7812 12.8438C44.0216 14.7665 43.875 16.7185 43.875 18.6562C30.7575 18.6562 17.64 18.6562 4.125 18.6562C4.125 13.5938 4.125 13.5938 4.21875 12.8438Z" fill="#805333"/>
<path d="M6 33.5625C17.88 33.5625 29.76 33.5625 42 33.5625C42 34.4008 41.9833 35.2278 41.9353 36.0633C41.9276 36.2018 41.9204 36.3403 41.9138 36.4788C41.9041 36.6823 41.8927 36.8857 41.881 37.0891C41.8746 37.2086 41.8682 37.3281 41.8616 37.4512C41.8091 37.8044 41.718 38.0407 41.5313 38.3438C41.2014 38.5637 41.0683 38.5549 40.6779 38.5556C40.5575 38.5563 40.437 38.557 40.3129 38.5576C40.1785 38.5574 40.044 38.5572 39.9096 38.557C39.7674 38.5574 39.6252 38.5579 39.4829 38.5584C39.0911 38.5598 38.6993 38.5599 38.3075 38.5599C37.8853 38.56 37.4632 38.5613 37.041 38.5623C36.1174 38.5645 35.1939 38.5652 34.2704 38.5657C33.694 38.566 33.1176 38.5666 32.5413 38.5673C30.9463 38.5691 29.3514 38.5707 27.7565 38.5709C27.6033 38.571 27.6033 38.571 27.447 38.571C27.24 38.571 27.033 38.5711 26.826 38.5711C26.7232 38.5711 26.6204 38.5711 26.5145 38.5711C26.3602 38.5712 26.3602 38.5712 26.2027 38.5712C24.5347 38.5715 22.8667 38.5741 21.1987 38.5776C19.4872 38.5811 17.7758 38.583 16.0643 38.583C15.1029 38.583 14.1416 38.5838 13.1802 38.5865C12.3618 38.5888 11.5433 38.5895 10.7249 38.5881C10.3071 38.5874 9.88933 38.5875 9.47155 38.5897C9.08928 38.5916 8.70708 38.5913 8.32482 38.5894C8.18634 38.5891 8.04786 38.5895 7.90939 38.5909C7.7215 38.5925 7.53358 38.5911 7.34569 38.5895C7.24122 38.5895 7.13675 38.5896 7.02911 38.5897C6.6582 38.512 6.51782 38.3519 6.28125 38.0625C6.17324 37.7385 6.15811 37.4579 6.13733 37.1166C6.1333 37.051 6.12927 36.9854 6.12512 36.9178C6.11667 36.7785 6.10841 36.6393 6.10032 36.5C6.08811 36.2908 6.07514 36.0816 6.06207 35.8724C6.05391 35.7363 6.04579 35.6003 6.03772 35.4642C6.03046 35.3423 6.0232 35.2204 6.01573 35.0947C5.99602 34.5844 6 34.0733 6 33.5625Z" fill="#AF8065"/>
<path d="M19.0313 18.6562C22.3106 18.6562 25.59 18.6562 28.9688 18.6562C28.9784 19.8493 28.9881 21.0423 28.998 22.2715C29.0023 22.6453 29.0066 23.0192 29.011 23.4044C29.0131 23.8682 29.0131 23.8682 29.0135 24.0867C29.0142 24.2362 29.0158 24.3858 29.0182 24.5353C29.0397 25.9388 28.8443 27.1801 27.9375 28.3125C27.8884 28.3767 27.8394 28.4408 27.7888 28.507C27.0358 29.4349 25.9804 30.0855 24.7812 30.2144C23.1276 30.3254 21.9084 30.0757 20.625 28.9688C20.0188 28.4047 19.6215 27.7665 19.3125 27C19.2885 26.9423 19.2645 26.8845 19.2398 26.825C18.9506 26.0195 18.9958 25.1937 19.0038 24.3508C19.0042 24.2047 19.0045 24.0586 19.0046 23.9125C19.0061 23.3753 19.01 22.838 19.0137 22.3008C19.0195 21.0981 19.0253 19.8954 19.0313 18.6562Z" fill="#EFC319"/>
<path d="M15.0786 4.53461C15.2949 4.53412 15.5112 4.53344 15.7275 4.53257C16.3088 4.53085 16.89 4.53204 17.4713 4.53389C18.0832 4.53544 18.6951 4.5346 19.3069 4.53413C20.3337 4.53362 21.3605 4.53517 22.3873 4.53781C23.4393 4.54051 24.4914 4.54118 25.5434 4.53973C26.8179 4.53799 28.0925 4.53816 29.367 4.53994C29.8512 4.54058 30.3353 4.54049 30.8195 4.53979C31.3907 4.53907 31.9618 4.54023 32.5329 4.54278C32.7411 4.54342 32.9493 4.54344 33.1575 4.54276C34.7396 4.53818 36.3021 4.65268 37.7637 5.31447C37.8367 5.34658 37.9098 5.37869 37.9851 5.41177C39.19 5.95808 40.5018 6.75279 41.25 7.87502C29.865 7.87502 18.48 7.87502 6.75 7.87502C8.91738 5.34641 11.8362 4.51591 15.0786 4.53461Z" fill="#805332"/>
<path d="M28.9688 23.625C30.6719 23.614 32.3751 23.6058 34.0783 23.6007C34.8692 23.5983 35.66 23.595 36.4508 23.5896C37.1401 23.5849 37.8293 23.5819 38.5186 23.5809C38.8836 23.5803 39.2485 23.5788 39.6135 23.5754C39.9571 23.5722 40.3006 23.5712 40.6442 23.572C40.8303 23.5718 41.0164 23.5692 41.2025 23.5667C42.112 23.5719 42.112 23.5719 42.4009 23.8568C42.4809 23.9741 42.4809 23.9741 42.5625 24.0937C42.5934 24.1247 42.6244 24.1556 42.6562 24.1875C42.706 25.0258 42.6289 25.8712 42.5684 26.707C42.5561 26.8868 42.5561 26.8868 42.5436 27.0703C42.5073 27.5865 42.4603 28.0822 42.375 28.5937C37.5488 28.5937 32.7225 28.5937 27.75 28.5937C27.8915 28.3107 28.0358 28.0658 28.207 27.8027C28.7917 26.8092 28.8994 25.935 28.9318 24.7998C28.9355 24.6867 28.9393 24.5736 28.9431 24.4571C28.9523 24.1797 28.9608 23.9024 28.9688 23.625Z" fill="#AF8065"/>
<path d="M6.42707 23.6137C6.59311 23.6135 6.59311 23.6135 6.76251 23.6133C6.94559 23.6138 6.94559 23.6138 7.13237 23.6144C7.26171 23.6144 7.39104 23.6144 7.52038 23.6143C7.87211 23.6143 8.22385 23.6148 8.57558 23.6155C8.94294 23.6161 9.31029 23.6161 9.67765 23.6163C10.3736 23.6165 11.0695 23.6173 11.7654 23.6183C12.5576 23.6193 13.3497 23.6198 14.1419 23.6203C15.7717 23.6213 17.4015 23.6229 19.0312 23.625C19.033 23.6946 19.0348 23.7643 19.0366 23.836C19.0452 24.1552 19.0553 24.4744 19.0653 24.7936C19.0681 24.9031 19.0708 25.0126 19.0736 25.1255C19.1115 26.2632 19.344 27.2236 20.0405 28.1499C20.1562 28.3125 20.1562 28.3125 20.25 28.5938C15.4237 28.5938 10.5975 28.5938 5.625 28.5938C5.25958 24.3306 5.25958 24.3306 5.51953 23.8887C5.83674 23.6181 6.01623 23.6134 6.42707 23.6137Z" fill="#AF8065"/>
<path d="M35.0625 4.59373C35.7577 4.58653 36.4529 4.58164 37.1482 4.57828C37.3841 4.57687 37.6201 4.57496 37.856 4.57251C40.8888 4.5418 43.2768 5.14774 45.5156 7.31834C46.9226 8.7277 47.9391 10.7741 48.0113 12.7825C48.0111 12.891 48.0109 12.9995 48.0106 13.1112C48.0107 13.1717 48.0107 13.2321 48.0107 13.2944C48.0106 13.4917 48.0099 13.689 48.0092 13.8863C48.009 14.0241 48.0088 14.1619 48.0088 14.2997C48.0084 14.6605 48.0075 15.0213 48.0064 15.3821C48.0053 15.816 48.0049 16.2499 48.0043 16.6838C48.0034 17.3412 48.0016 17.9987 48 18.6562C46.6387 18.6562 45.2775 18.6562 43.875 18.6562C43.8715 18.3093 43.868 17.9623 43.8644 17.6048C43.86 17.2635 43.8552 16.9222 43.8504 16.5808C43.8473 16.3462 43.8447 16.1115 43.8425 15.8769C43.8124 12.6755 43.1968 9.82304 40.8926 7.47068C39.2619 5.87343 37.2622 5.1228 35.0625 4.68748C35.0625 4.65654 35.0625 4.6256 35.0625 4.59373Z" fill="#EFC319"/>
<path d="M9.026 4.58458C9.13536 4.58471 9.24472 4.58485 9.35739 4.58498C9.70506 4.5855 10.0527 4.58668 10.4004 4.58788C10.6368 4.58835 10.8732 4.58877 11.1096 4.58916C11.6876 4.59019 12.2657 4.59176 12.8437 4.59374C12.5487 4.75112 12.2737 4.83037 11.9454 4.89758C9.9764 5.30326 8.34995 6.27504 6.9375 7.68749C6.86922 7.75577 6.80094 7.82405 6.73059 7.89439C4.95117 9.78612 4.22645 12.2257 4.18909 14.7744C4.18714 14.8857 4.18519 14.997 4.18318 15.1117C4.17708 15.4651 4.17154 15.8185 4.16601 16.1719C4.16196 16.4123 4.15787 16.6528 4.15375 16.8933C4.14367 17.4809 4.13435 18.0686 4.125 18.6562C2.76375 18.6562 1.4025 18.6562 -1.46125e-06 18.6562C-0.0112821 17.1684 -0.0112821 17.1684 -0.0137344 16.5254C-0.015404 16.0898 -0.0173608 15.6541 -0.0212188 15.2184C-0.0243153 14.8664 -0.0259647 14.5145 -0.0266855 14.1625C-0.027198 14.0295 -0.0281986 13.8964 -0.0297382 13.7633C-0.0586075 11.1603 0.916751 8.94276 2.72461 7.07811C4.41632 5.38933 6.66091 4.57371 9.026 4.58458Z" fill="#EFC319"/>
<path d="M24.7734 22.1308C25.1214 22.376 25.401 22.5813 25.5937 22.9687C25.6796 23.4909 25.7213 24.0656 25.4238 24.5273C25.2187 24.75 25.2187 24.75 25.0673 24.8746C24.8884 25.0905 24.9043 25.2329 24.906 25.5106C24.9042 25.6514 24.9042 25.6514 24.9023 25.795C24.9023 25.9918 24.9031 26.1885 24.9045 26.3853C24.8921 27.1946 24.8921 27.1946 24.6292 27.5328C24.2847 27.8272 24.2847 27.8272 24 27.8203C23.9401 27.8218 23.8801 27.8232 23.8184 27.8247C23.4925 27.6988 23.3072 27.4931 23.1562 27.1875C23.0862 26.7365 23.1111 26.2829 23.1224 25.8279C23.1208 25.3399 23.112 25.0255 22.7838 24.6471C22.6896 24.556 22.595 24.4652 22.5 24.375C22.2887 23.9523 22.3408 23.4249 22.4062 22.9687C22.6199 22.5733 22.9057 22.3204 23.2793 22.0781C23.7929 21.9826 24.274 21.9676 24.7734 22.1308Z" fill="#2E3137"/>
</g>
<defs>
<clipPath id="clip0_445_5078">
<rect width="48" height="48" fill="white"/>
</clipPath>
</defs>
</svg>
