<svg width="48" height="48" viewBox="0 0 48 48" fill="none" xmlns="http://www.w3.org/2000/svg">
<g clip-path="url(#clip0_445_4859)">
<path d="M13.137 28.1824C13.2335 28.1819 13.3299 28.1814 13.4293 28.1809C13.7531 28.1795 14.0768 28.1802 14.4005 28.1809C14.6324 28.1803 14.8643 28.1797 15.0962 28.1789C15.661 28.1774 16.2258 28.1772 16.7906 28.1777C17.2497 28.1781 17.7088 28.178 18.1679 28.1775C18.2332 28.1774 18.2986 28.1773 18.3659 28.1773C18.4986 28.1771 18.6314 28.177 18.7641 28.1768C20.0089 28.1755 21.2537 28.176 22.4985 28.1771C23.6372 28.1781 24.7759 28.1768 25.9146 28.1746C27.084 28.1723 28.2534 28.1714 29.4227 28.172C30.0792 28.1724 30.7356 28.1721 31.3921 28.1705C32.0093 28.169 32.6265 28.1694 33.2437 28.1712C33.4704 28.1715 33.6971 28.1712 33.9238 28.1703C34.2329 28.169 34.542 28.1701 34.8511 28.1718C34.9411 28.1709 35.031 28.17 35.1237 28.169C35.6504 28.1749 35.9593 28.238 36.375 28.5938C36.7553 29.0834 36.7288 29.5925 36.6562 30.1875C36.4315 30.6621 36.2778 30.7521 35.8125 31.0313C35.1628 31.0313 34.5131 31.0313 33.8438 31.0313C33.8438 32.8875 33.8438 34.7438 33.8438 36.6563C34.2441 36.6543 34.6444 36.6523 35.0569 36.6503C36.3785 36.6441 37.7002 36.6399 39.0218 36.6368C39.8232 36.6349 40.6247 36.6323 41.4261 36.628C42.1247 36.6242 42.8232 36.6218 43.5218 36.621C43.8917 36.6205 44.2615 36.6193 44.6314 36.6166C44.9796 36.6141 45.3279 36.6133 45.6762 36.6138C45.8646 36.6137 46.053 36.6117 46.2414 36.6096C47.2747 36.6143 47.2747 36.6143 47.7187 37.0313C48.099 37.5209 48.0726 38.03 48 38.625C47.7968 39.0539 47.5866 39.2757 47.1562 39.4688C46.8176 39.5027 46.4825 39.4952 46.1426 39.4863C46.0508 39.4851 45.959 39.4838 45.8644 39.4825C45.6387 39.4792 45.4131 39.4746 45.1875 39.4688C45.1883 39.5638 45.1892 39.6589 45.19 39.7568C45.1976 40.6534 45.2032 41.55 45.2069 42.4466C45.2089 42.9075 45.2115 43.3684 45.2158 43.8294C45.2199 44.2743 45.2221 44.7193 45.2231 45.1642C45.2238 45.3339 45.2251 45.5035 45.2271 45.6731C45.2299 45.911 45.2302 46.1488 45.2301 46.3867C45.2314 46.4566 45.2328 46.5264 45.2342 46.5984C45.2304 47.0798 45.1243 47.3537 44.8125 47.7188C44.4245 48.011 44.1325 48.0353 43.6522 48.0357C43.5831 48.0361 43.5141 48.0365 43.4429 48.037C43.2108 48.0381 42.9787 48.0372 42.7465 48.0363C42.5787 48.0367 42.4108 48.0373 42.243 48.0379C41.7813 48.0392 41.3195 48.0388 40.8577 48.0381C40.36 48.0377 39.8622 48.0389 39.3644 48.0398C38.389 48.0414 37.4137 48.0415 36.4383 48.041C35.6457 48.0407 34.8531 48.0408 34.0605 48.0413C33.9478 48.0414 33.8351 48.0414 33.719 48.0415C33.4901 48.0416 33.2612 48.0418 33.0322 48.0419C30.8842 48.0432 28.7362 48.0427 26.5882 48.0416C24.622 48.0407 22.6558 48.0419 20.6896 48.0442C18.6718 48.0464 16.6541 48.0473 14.6364 48.0467C13.5031 48.0464 12.3698 48.0466 11.2366 48.0482C10.2718 48.0496 9.30713 48.0497 8.34241 48.0481C7.85 48.0473 7.35761 48.0471 6.8652 48.0485C6.41466 48.0498 5.96415 48.0494 5.51361 48.0475C5.35041 48.0472 5.1872 48.0475 5.024 48.0484C4.80248 48.0497 4.58109 48.0486 4.35959 48.0469C4.23645 48.0469 4.11332 48.0469 3.98646 48.0469C3.52077 47.9808 3.23038 47.7777 2.91996 47.4308C2.7531 47.0045 2.77582 46.5928 2.78057 46.1392C2.78051 45.9854 2.78051 45.9854 2.78045 45.8286C2.78064 45.4903 2.78283 45.152 2.78503 44.8136C2.78556 44.5789 2.78596 44.3441 2.78624 44.1094C2.7872 43.5549 2.78942 43.0004 2.79224 42.446C2.7957 41.7526 2.79721 41.0592 2.79877 40.3658C2.80178 39.1293 2.80653 37.8928 2.8125 36.6563C2.72746 36.6592 2.72746 36.6592 2.6407 36.6622C2.38158 36.67 2.12248 36.6749 1.86328 36.6797C1.77409 36.6828 1.68491 36.686 1.59302 36.6892C1.02773 36.6971 0.7114 36.6579 0.281249 36.2813C-0.0990297 35.7916 -0.0725614 35.2825 -1.20979e-06 34.6875C0.204817 34.2551 0.421239 34.0558 0.843749 33.8438C1.10933 33.8091 1.10933 33.8091 1.40551 33.8099C1.51817 33.8095 1.63083 33.8092 1.7469 33.8088C1.93109 33.8103 1.93109 33.8103 2.11901 33.8118C2.25023 33.8119 2.38146 33.8119 2.51269 33.8117C2.86829 33.8116 3.22386 33.8133 3.57946 33.8152C3.95132 33.817 4.32317 33.8172 4.69503 33.8175C5.39892 33.8184 6.10279 33.8207 6.80666 33.8235C7.60812 33.8266 8.40958 33.8282 9.21105 33.8296C10.8595 33.8325 12.5078 33.8377 14.1562 33.8438C14.1562 32.9156 14.1562 31.9875 14.1562 31.0313C13.5336 31.046 13.5336 31.046 12.9111 31.065C12.3735 31.0714 12.039 31.0354 11.625 30.6563C11.2447 30.1666 11.2712 29.6575 11.3437 29.0625C11.7364 28.2335 12.304 28.1772 13.137 28.1824Z" fill="#6F7D95"/>
<path d="M12.7986 -0.0250774C12.8979 -0.0255022 12.9972 -0.025927 13.0995 -0.0263646C13.4322 -0.0275515 13.7648 -0.027398 14.0975 -0.0272432C14.3361 -0.0278042 14.5747 -0.0284422 14.8132 -0.0291515C15.394 -0.0306367 15.9748 -0.0312242 16.5556 -0.0313288C17.028 -0.031418 17.5003 -0.0318037 17.9727 -0.0323977C19.313 -0.0340486 20.6533 -0.0349139 21.9936 -0.0347732C22.0658 -0.0347657 22.138 -0.0347582 22.2124 -0.0347505C22.3209 -0.034739 22.3209 -0.034739 22.4315 -0.0347273C23.6027 -0.0346511 24.7738 -0.0364443 25.9449 -0.039089C27.1485 -0.0417854 28.3521 -0.0430769 29.5557 -0.0429151C30.231 -0.042853 30.9062 -0.0433635 31.5815 -0.045386C32.2169 -0.0472768 32.8522 -0.0472145 33.4876 -0.0458516C33.7204 -0.0456558 33.9533 -0.046097 34.1861 -0.0472317C34.5047 -0.0486836 34.8233 -0.0478055 35.1419 -0.0463634C35.2791 -0.04781 35.2791 -0.04781 35.419 -0.0492859C36.5312 -0.0382142 37.4225 0.397889 38.25 1.12499C38.6927 1.59562 39.037 2.12026 39.2813 2.71874C39.3147 2.8002 39.3482 2.88165 39.3827 2.96557C39.6556 3.96674 39.6079 5.27934 39.0938 6.18749C38.4064 7.32178 37.4654 8.07523 36.1875 8.43749C35.9264 8.45272 35.6754 8.45947 35.4148 8.4558C35.3428 8.45554 35.2707 8.45527 35.1965 8.455C34.9682 8.45396 34.74 8.45161 34.5117 8.44921C34.3562 8.44827 34.2007 8.44742 34.0452 8.44665C33.6655 8.44459 33.2859 8.44136 32.9062 8.43749C32.8644 8.56873 32.8644 8.56873 32.8216 8.70261C32.182 10.5514 30.256 12.147 28.5938 13.0312C28.47 13.0622 28.3463 13.0931 28.2188 13.125C28.2497 14.4244 28.2806 15.7237 28.3125 17.0625C28.6219 17.2172 28.9313 17.3719 29.25 17.5312C30.1616 18.1566 30.7649 19.0904 31.0313 20.1562C31.0698 20.4989 31.073 20.8381 31.0719 21.1827C31.0724 21.278 31.0729 21.3733 31.0734 21.4714C31.074 21.6715 31.0739 21.8715 31.0731 22.0715C31.0723 22.3771 31.075 22.6825 31.0779 22.988C31.0781 23.1831 31.078 23.3782 31.0778 23.5734C31.0788 23.6642 31.0799 23.755 31.081 23.8486C31.0755 24.3814 31.0282 24.7128 30.6563 25.125C30.3149 25.3681 30.0823 25.4415 29.6651 25.4426C29.5092 25.444 29.5092 25.444 29.3501 25.4454C29.2369 25.445 29.1238 25.4446 29.0072 25.4441C28.8274 25.4451 28.8274 25.4451 28.644 25.4461C28.3159 25.4478 27.9878 25.4476 27.6596 25.4471C27.3854 25.4468 27.1112 25.4474 26.837 25.448C26.1899 25.4493 25.5429 25.4491 24.8959 25.4481C24.229 25.447 23.5621 25.4483 22.8952 25.4508C22.322 25.4529 21.7488 25.4535 21.1756 25.453C20.8336 25.4526 20.4915 25.4529 20.1494 25.4545C19.7679 25.4562 19.3864 25.4549 19.0049 25.4533C18.8919 25.4542 18.779 25.4551 18.6626 25.456C18.0706 25.4508 17.6969 25.4357 17.25 25.0312C16.8772 24.6073 16.9265 24.125 16.9281 23.5891C16.9276 23.4944 16.9271 23.3997 16.9266 23.3022C16.926 23.1018 16.9261 22.9015 16.9269 22.7012C16.9277 22.3975 16.925 22.094 16.9221 21.7903C16.9219 21.595 16.922 21.3997 16.9222 21.2043C16.9212 21.1148 16.9201 21.0252 16.9191 20.9329C16.9304 19.8168 17.3638 18.9245 18.0938 18.0937C18.5899 17.6271 19.0678 17.3723 19.6875 17.0625C19.7184 15.7631 19.7494 14.4637 19.7813 13.125C19.5956 13.0631 19.41 13.0012 19.2188 12.9375C17.5057 11.968 16.1114 10.5494 15.1875 8.81249C15.1536 8.68819 15.1218 8.56326 15.0938 8.43749C14.9528 8.44044 14.9528 8.44044 14.8089 8.44344C14.4555 8.4503 14.102 8.45456 13.7485 8.45809C13.5964 8.45996 13.4443 8.46251 13.2922 8.46578C11.873 8.49554 10.8515 8.28036 9.75 7.31249C9.3073 6.84186 8.96301 6.31723 8.71875 5.71874C8.68528 5.63729 8.6518 5.55584 8.61731 5.47192C8.34437 4.47075 8.39206 3.15815 8.90625 2.24999C9.48227 1.2995 10.2161 0.609436 11.25 0.187494C11.3264 0.15548 11.4028 0.123466 11.4815 0.0904813C11.9254 -0.030859 12.3404 -0.0265156 12.7986 -0.0250774ZM11.8301 3.22851C11.4609 3.66102 11.3957 3.89907 11.4078 4.45239C11.4516 4.79926 11.5805 4.99294 11.8125 5.24999C12.3456 5.64642 12.8861 5.63827 13.5293 5.63085C13.886 5.62795 13.886 5.62795 14.25 5.62499C14.2191 4.69687 14.1881 3.76874 14.1563 2.81249C12.8978 2.72669 12.8978 2.72669 11.8301 3.22851ZM33.8438 2.81249C33.8128 3.74062 33.7819 4.66874 33.75 5.62499C33.984 5.62886 34.2179 5.63273 34.459 5.63671C34.5313 5.63842 34.6037 5.64013 34.6782 5.64189C35.2442 5.64636 35.7281 5.59185 36.1699 5.20898C36.5391 4.77647 36.6043 4.53841 36.5922 3.9851C36.5484 3.63822 36.4195 3.44454 36.1875 3.18749C35.4762 2.65854 34.7307 2.81249 33.8438 2.81249Z" fill="#FEBC33"/>
<path d="M24 31.0312C27.2484 31.0312 30.4969 31.0312 33.8438 31.0312C33.8438 32.8875 33.8438 34.7438 33.8438 36.6562C34.4442 36.6533 34.4442 36.6533 35.0569 36.6503C36.3785 36.6441 37.7002 36.6399 39.0218 36.6368C39.8232 36.6349 40.6247 36.6323 41.4261 36.628C42.1247 36.6242 42.8232 36.6218 43.5218 36.621C43.8917 36.6205 44.2615 36.6193 44.6314 36.6166C44.9796 36.6141 45.3279 36.6133 45.6762 36.6138C45.8646 36.6137 46.053 36.6117 46.2414 36.6096C47.2747 36.6143 47.2747 36.6143 47.7188 37.0312C48.099 37.5209 48.0726 38.03 48 38.625C47.7968 39.0539 47.5866 39.2757 47.1562 39.4688C46.8176 39.5027 46.4825 39.4952 46.1426 39.4863C46.0508 39.4851 45.959 39.4838 45.8644 39.4825C45.6387 39.4792 45.4131 39.4746 45.1875 39.4688C45.1883 39.5638 45.1892 39.6589 45.19 39.7568C45.1976 40.6534 45.2032 41.55 45.2069 42.4466C45.2089 42.9075 45.2115 43.3684 45.2158 43.8294C45.2199 44.2743 45.2221 44.7193 45.2231 45.1642C45.2238 45.3339 45.2251 45.5035 45.2271 45.6731C45.2299 45.911 45.2302 46.1488 45.2301 46.3867C45.2314 46.4566 45.2328 46.5264 45.2342 46.5984C45.2304 47.0798 45.1243 47.3537 44.8125 47.7188C44.3925 48.0492 44.0264 48.0392 43.5151 48.0338C43.3898 48.0342 43.3898 48.0342 43.2621 48.0345C42.9824 48.035 42.7027 48.0335 42.423 48.0319C42.2225 48.0318 42.022 48.0319 41.8215 48.0321C41.2771 48.0321 40.7327 48.0305 40.1882 48.0285C39.6193 48.0268 39.0504 48.0266 38.4815 48.0263C37.404 48.0254 36.3266 48.0231 35.2492 48.0203C34.0227 48.0171 32.7961 48.0156 31.5696 48.0142C29.0464 48.0112 26.5232 48.0061 24 48C24 46.1128 24 44.2256 24 42.2812C25.5586 42.252 25.5586 42.252 26.0473 42.2449C26.1767 42.2419 26.306 42.2387 26.4353 42.2355C26.5012 42.2349 26.5672 42.2343 26.6351 42.2337C27.073 42.221 27.3763 42.1342 27.75 41.9062C28.1062 41.5132 28.1585 41.1341 28.151 40.6205C28.1098 40.2809 27.9767 40.0943 27.75 39.8438C27.2622 39.5313 26.8234 39.5129 26.2617 39.498C26.1793 39.4948 26.0969 39.4916 26.012 39.4883C25.8101 39.4807 25.6082 39.4745 25.4062 39.4688C25.4059 39.4113 25.4056 39.3538 25.4052 39.2946C25.4013 38.6953 25.3948 38.0961 25.3868 37.4969C25.3842 37.2734 25.3822 37.0499 25.3808 36.8264C25.3788 36.5047 25.3745 36.1832 25.3696 35.8616C25.3695 35.7619 25.3694 35.6623 25.3693 35.5597C25.3581 34.9927 25.3222 34.647 24.9375 34.2188C24.6195 34.0266 24.3617 33.9342 24 33.8438C24 32.9156 24 31.9875 24 31.0312Z" fill="#66728A"/>
<path d="M12.9951 -0.0212934C13.1764 -0.0213273 13.1764 -0.0213273 13.3614 -0.0213619C13.6873 -0.0214041 14.0132 -0.0203202 14.3391 -0.0189974C14.6453 -0.0179268 14.9515 -0.0178792 15.2577 -0.0177457C16.1523 -0.0167632 17.0469 -0.0141455 17.9414 -0.0117261C19.9407 -0.00785894 21.9401 -0.00399176 24 -7.38166e-06C24 4.64062 24 9.28124 24 14.0625C22.5702 14.0625 22.5702 14.0625 21.832 13.875C21.7487 13.8542 21.6654 13.8335 21.5795 13.8121C20.1382 13.4337 18.8714 12.853 17.7188 11.9062C17.5817 11.7948 17.5817 11.7948 17.4419 11.681C16.4611 10.8359 15.672 9.78345 15.0938 8.62499C15.0938 8.56312 15.0938 8.50124 15.0938 8.43749C14.9528 8.44044 14.9528 8.44044 14.8089 8.44344C14.4555 8.4503 14.102 8.45456 13.7485 8.45809C13.5964 8.45996 13.4443 8.46251 13.2922 8.46578C11.873 8.49554 10.8515 8.28036 9.75 7.31249C9.3073 6.84186 8.96301 6.31723 8.71875 5.71874C8.68528 5.63729 8.6518 5.55584 8.61731 5.47192C8.34437 4.47074 8.39206 3.15815 8.90625 2.24999C9.48227 1.2995 10.2161 0.609435 11.25 0.187493C11.3585 0.139354 11.3585 0.139354 11.4692 0.0902436C11.9774 -0.0433449 12.4719 -0.0244411 12.9951 -0.0212934ZM11.8301 3.22851C11.4609 3.66102 11.3957 3.89907 11.4078 4.45239C11.4516 4.79926 11.5805 4.99294 11.8125 5.24999C12.3456 5.64642 12.8861 5.63827 13.5293 5.63085C13.886 5.62795 13.886 5.62795 14.25 5.62499C14.2191 4.69687 14.1881 3.76874 14.1563 2.81249C12.8978 2.72669 12.8978 2.72669 11.8301 3.22851Z" fill="#FEDD33"/>
<path d="M2.8125 36.6562C6.55594 36.6562 10.2994 36.6562 14.1562 36.6562C14.1562 40.3997 14.1562 44.1431 14.1562 48C12.4354 48.0077 10.7145 48.0155 8.94141 48.0234C8.12683 48.0286 8.12683 48.0286 7.29579 48.0338C6.63183 48.0355 6.63183 48.0355 6.32084 48.0358C6.10398 48.0364 5.88713 48.0377 5.67029 48.0396C5.3415 48.0423 5.01278 48.0427 4.68398 48.0426C4.58763 48.0439 4.49129 48.0453 4.39202 48.0467C3.8514 48.0435 3.51075 48.0056 3.09375 47.625C2.70884 47.1948 2.77486 46.6849 2.78057 46.1392C2.78052 45.983 2.78052 45.983 2.78047 45.8236C2.78068 45.4869 2.78282 45.1503 2.78503 44.8136C2.78545 44.6056 2.78573 44.3976 2.78589 44.1895C2.78737 43.4187 2.79129 42.6478 2.79492 41.877C2.80072 40.1541 2.80652 38.4313 2.8125 36.6562Z" fill="#495A79"/>
<path d="M22.1327 16.8435C22.2885 16.8429 22.4444 16.8423 22.6002 16.8416C22.9259 16.8405 23.2516 16.8401 23.5772 16.8402C23.9917 16.8403 24.4061 16.8377 24.8206 16.8345C25.1423 16.8324 25.4639 16.832 25.7856 16.8321C25.9382 16.8319 26.0909 16.8311 26.2436 16.8296C27.6386 16.8175 28.7429 17.0468 29.8125 18C30.2549 18.4712 30.5994 18.995 30.8438 19.5937C30.8756 19.6699 30.9075 19.746 30.9404 19.8244C31.0629 20.2716 31.0617 20.6935 31.0627 21.1553C31.0637 21.2988 31.0637 21.2988 31.0646 21.4452C31.0656 21.6469 31.066 21.8486 31.066 22.0503C31.0664 22.3583 31.0698 22.6662 31.0734 22.9742C31.0739 23.1706 31.0743 23.3671 31.0745 23.5635C31.0765 23.701 31.0765 23.701 31.0785 23.8414C31.075 24.3771 31.0313 24.7109 30.6563 25.125C30.3149 25.368 30.0823 25.4415 29.6651 25.4426C29.5612 25.4435 29.4572 25.4444 29.3501 25.4454C29.2369 25.445 29.1238 25.4446 29.0072 25.4441C28.8874 25.4448 28.7675 25.4454 28.644 25.4461C28.3159 25.4478 27.9878 25.4476 27.6596 25.4471C27.3854 25.4468 27.1112 25.4474 26.837 25.448C26.1899 25.4493 25.5429 25.4491 24.8959 25.4481C24.229 25.447 23.5621 25.4483 22.8952 25.4508C22.322 25.4529 21.7488 25.4535 21.1756 25.453C20.8336 25.4526 20.4915 25.4529 20.1494 25.4545C19.7679 25.4562 19.3864 25.4549 19.0049 25.4533C18.892 25.4542 18.779 25.4551 18.6626 25.456C18.0706 25.4508 17.6969 25.4357 17.25 25.0312C16.8772 24.6073 16.9265 24.125 16.9281 23.5891C16.9276 23.4944 16.9271 23.3997 16.9266 23.3022C16.926 23.1018 16.9261 22.9015 16.9269 22.7012C16.9277 22.3975 16.925 22.094 16.9221 21.7903C16.9219 21.595 16.922 21.3996 16.9222 21.2043C16.9212 21.1147 16.9201 21.0252 16.9191 20.9329C16.9304 19.8168 17.3638 18.9245 18.0938 18.0937C19.2891 16.9693 20.561 16.8449 22.1327 16.8435Z" fill="#FEBC33"/>
<path d="M33.8438 39.4688C37.5872 39.4688 41.3306 39.4688 45.1875 39.4688C45.1952 40.7256 45.203 41.9824 45.2109 43.2773C45.2144 43.6736 45.2178 44.0698 45.2213 44.478C45.223 44.9634 45.223 44.9634 45.2233 45.191C45.2239 45.3493 45.2252 45.5075 45.2271 45.6658C45.2298 45.9061 45.2302 46.1464 45.2301 46.3867C45.2314 46.4567 45.2328 46.5267 45.2342 46.5988C45.2304 47.0801 45.1242 47.3538 44.8125 47.7188C44.3823 48.1037 43.8725 48.0376 43.3267 48.0319C43.2242 48.032 43.1217 48.032 43.0161 48.0321C42.6778 48.0319 42.3394 48.0297 42.0011 48.0275C41.7664 48.0269 41.5316 48.0265 41.2969 48.0263C40.7424 48.0253 40.1879 48.0231 39.6335 48.0203C38.8292 48.0162 38.025 48.0148 37.2208 48.013C36.0951 48.0103 34.9694 48.0049 33.8438 48C33.8438 45.1847 33.8438 42.3694 33.8438 39.4688Z" fill="#42516D"/>
<path d="M13.137 28.1824C13.2335 28.1819 13.3299 28.1814 13.4293 28.1809C13.7531 28.1795 14.0768 28.1802 14.4005 28.1809C14.6324 28.1803 14.8643 28.1797 15.0962 28.1789C15.661 28.1774 16.2258 28.1772 16.7906 28.1777C17.2497 28.1781 17.7088 28.178 18.1679 28.1775C18.2332 28.1774 18.2986 28.1773 18.3659 28.1773C18.4986 28.1771 18.6314 28.177 18.7641 28.1768C20.0089 28.1755 21.2537 28.176 22.4985 28.1771C23.6372 28.1781 24.7759 28.1768 25.9146 28.1746C27.084 28.1723 28.2534 28.1714 29.4227 28.172C30.0792 28.1724 30.7356 28.1721 31.3921 28.1705C32.0093 28.169 32.6265 28.1694 33.2437 28.1712C33.4704 28.1715 33.6971 28.1712 33.9238 28.1703C34.2329 28.169 34.542 28.1701 34.8511 28.1718C34.9411 28.1709 35.031 28.17 35.1237 28.169C35.6504 28.1749 35.9593 28.238 36.375 28.5938C36.7553 29.0834 36.7288 29.5925 36.6562 30.1875C36.4527 30.6172 36.2414 30.8344 35.8125 31.0313C35.496 31.0727 35.1818 31.0696 34.863 31.0676C34.7183 31.0684 34.7183 31.0684 34.5707 31.0691C34.2469 31.0705 33.9232 31.0698 33.5995 31.0691C33.3676 31.0697 33.1357 31.0703 32.9038 31.0711C32.339 31.0726 31.7742 31.0728 31.2094 31.0723C30.7503 31.0719 30.2912 31.072 29.8321 31.0725C29.7668 31.0726 29.7014 31.0727 29.6341 31.0728C29.5014 31.0729 29.3686 31.073 29.2359 31.0732C27.9911 31.0745 26.7463 31.074 25.5015 31.0729C24.3628 31.072 23.2241 31.0732 22.0854 31.0754C20.916 31.0777 19.7466 31.0786 18.5773 31.078C17.9208 31.0776 17.2644 31.0779 16.6079 31.0795C15.9907 31.081 15.3735 31.0806 14.7563 31.0788C14.5296 31.0785 14.3029 31.0788 14.0762 31.0797C13.7671 31.081 13.458 31.0799 13.1489 31.0782C13.0139 31.0796 13.0139 31.0796 12.8763 31.081C12.3496 31.0751 12.0407 31.012 11.625 30.6563C11.2447 30.1666 11.2712 29.6575 11.3437 29.0625C11.7364 28.2335 12.304 28.1772 13.137 28.1824Z" fill="#8A94A8"/>
<path d="M24 16.875C24 19.6903 24 22.5056 24 25.4062C22.486 25.4178 22.486 25.4178 20.9414 25.4297C20.6235 25.4331 20.3056 25.4365 19.978 25.44C19.7257 25.4411 19.4733 25.4421 19.2209 25.4429C19.1233 25.4443 19.1233 25.4443 19.0237 25.4458C18.8306 25.4486 18.6375 25.449 18.4444 25.4488C18.2813 25.4501 18.2813 25.4501 18.115 25.4513C17.6665 25.3845 17.373 25.1711 17.0768 24.8343C16.9131 24.4224 16.9268 24.0285 16.9281 23.5891C16.9276 23.4944 16.9271 23.3997 16.9266 23.3022C16.926 23.1018 16.9261 22.9015 16.9269 22.7012C16.9277 22.3975 16.925 22.094 16.9221 21.7903C16.9219 21.595 16.922 21.3996 16.9222 21.2043C16.9212 21.1147 16.9201 21.0252 16.9191 20.9329C16.9304 19.8168 17.3638 18.9245 18.0938 18.0937C19.7851 16.5027 21.6389 16.875 24 16.875Z" fill="#FEDD33"/>
<path d="M21.6361 33.7972C21.7129 33.7971 21.7897 33.797 21.8689 33.7968C22.0303 33.797 22.1917 33.7981 22.3532 33.8C22.5993 33.8027 22.8452 33.8019 23.0912 33.8007C23.2488 33.8013 23.4063 33.8021 23.5638 33.8031C23.6368 33.8028 23.7098 33.8026 23.7849 33.8023C24.2362 33.81 24.5454 33.8791 24.9375 34.125C25.2802 34.5048 25.4182 34.7264 25.4169 35.2328C25.4169 35.3267 25.4169 35.4205 25.4169 35.5172C25.4164 35.6187 25.4159 35.7203 25.4154 35.825C25.4153 35.9287 25.4151 36.0325 25.415 36.1394C25.4145 36.4719 25.4133 36.8043 25.4121 37.1367C25.4116 37.3617 25.4112 37.5867 25.4108 37.8117C25.4098 38.364 25.4082 38.9164 25.4062 39.4688C25.5283 39.4655 25.6504 39.4622 25.7761 39.4589C25.938 39.4562 26.0999 39.4537 26.2617 39.4512C26.342 39.4488 26.4222 39.4465 26.5049 39.444C26.993 39.4384 27.3285 39.4751 27.75 39.75C28.147 40.1899 28.2473 40.4534 28.2389 41.0328C28.198 41.4732 28.0216 41.7347 27.7031 42.0293C27.323 42.2859 27.0298 42.2941 26.5808 42.2979C26.5196 42.2985 26.4584 42.2991 26.3954 42.2997C26.1931 42.3016 25.9909 42.3027 25.7886 42.3036C25.6847 42.3042 25.6847 42.3042 25.5787 42.3048C25.212 42.3067 24.8453 42.308 24.4786 42.3089C24.1009 42.31 23.7232 42.3132 23.3454 42.3169C23.0541 42.3194 22.7628 42.3202 22.4715 42.3205C22.3323 42.3209 22.1931 42.322 22.0539 42.3238C20.7056 42.3396 20.7056 42.3396 20.1562 41.9063C19.8787 41.6141 19.7584 41.2745 19.7344 40.875C19.7584 40.4755 19.8787 40.1359 20.1562 39.8438C20.6919 39.4572 21.0957 39.4199 21.7441 39.4453C22.0245 39.4531 22.3049 39.4608 22.5937 39.4688C22.5937 38.5406 22.5937 37.6125 22.5937 36.6563C22.037 36.671 22.037 36.671 21.4804 36.69C20.9254 36.6974 20.6084 36.6076 20.1562 36.2813C19.8787 35.9891 19.7584 35.6495 19.7344 35.25C19.7584 34.8505 19.8787 34.5109 20.1562 34.2188C20.6667 33.8719 21.0254 33.7884 21.6361 33.7972Z" fill="#FECC33"/>
<path d="M12.6923 28.1849C12.8424 28.1843 12.8424 28.1843 12.9955 28.1837C13.1042 28.1848 13.213 28.1858 13.3251 28.1868C13.4403 28.1868 13.5556 28.1867 13.6744 28.1867C13.9897 28.1868 14.305 28.1883 14.6203 28.1902C14.9501 28.192 15.2799 28.1921 15.6098 28.1925C16.234 28.1934 16.8581 28.1957 17.4823 28.1985C18.1931 28.2016 18.9039 28.2032 19.6147 28.2046C21.0765 28.2075 22.5382 28.2127 24 28.2187C24 29.1469 24 30.075 24 31.0312C22.4696 31.0397 20.9391 31.0466 19.4087 31.0507C18.698 31.0526 17.9874 31.0552 17.2768 31.0595C16.6573 31.0633 16.0379 31.0657 15.4184 31.0665C15.0904 31.067 14.7625 31.0682 14.4346 31.0709C14.0683 31.0739 13.702 31.074 13.3357 31.0738C13.2273 31.0752 13.1188 31.0765 13.0071 31.0779C12.4239 31.0749 12.0654 31.0536 11.625 30.6562C11.2447 30.1666 11.2712 29.6575 11.3437 29.0625C11.6274 28.4637 12.0297 28.1829 12.6923 28.1849Z" fill="#949FB3"/>
<path d="M12.3801 -0.018296C12.4739 -0.0178277 12.5677 -0.0173594 12.6643 -0.016877C12.7815 -0.01517 12.8987 -0.013463 13.0195 -0.0117042C13.3946 -0.00783704 13.7698 -0.00396986 14.1563 1.45193e-05C14.1563 0.928139 14.1563 1.85626 14.1563 2.81251C13.8114 2.83083 13.4666 2.84914 13.1217 2.86745C12.4624 2.9363 12.0607 3.04995 11.625 3.56251C11.4521 3.90839 11.4984 4.30917 11.5313 4.68751C11.692 5.08524 11.8968 5.25446 12.2813 5.43751C12.6932 5.54182 13.1068 5.56097 13.5293 5.584C13.6334 5.59007 13.6334 5.59007 13.7397 5.59627C13.9098 5.60614 14.0799 5.61562 14.25 5.62501C14.2942 5.79142 14.2942 5.79142 14.3394 5.9612C14.6302 7.04142 14.6302 7.04142 15.0282 8.08595C15.0938 8.25001 15.0938 8.25001 15.0938 8.43751C14.6453 8.44688 14.197 8.45364 13.7485 8.45811C13.5964 8.45998 13.4443 8.46253 13.2922 8.4658C11.873 8.49556 10.8515 8.28038 9.75 7.31251C9.3073 6.84188 8.96301 6.31725 8.71875 5.71876C8.68528 5.63731 8.6518 5.55586 8.61731 5.47194C8.34437 4.47077 8.39206 3.15817 8.90625 2.25001C9.64681 1.028 10.8789 -0.0337728 12.3801 -0.018296Z" fill="#F6B73B"/>
<path d="M33.8438 -9.05804e-06C34.3919 -0.0116106 34.3919 -0.0116106 34.9512 -0.0234466C35.0641 -0.0268606 35.1771 -0.0302746 35.2935 -0.033792C36.4771 -0.0457645 37.3647 0.347123 38.25 1.12499C38.6927 1.59562 39.037 2.12026 39.2812 2.71874C39.3315 2.84092 39.3315 2.84092 39.3827 2.96557C39.6556 3.96674 39.6079 5.27934 39.0938 6.18749C38.4064 7.32178 37.4654 8.07522 36.1875 8.43749C35.9264 8.45271 35.6754 8.45946 35.4148 8.4558C35.3428 8.45554 35.2707 8.45527 35.1965 8.455C34.9682 8.45395 34.74 8.4516 34.5117 8.44921C34.3562 8.44827 34.2007 8.44741 34.0452 8.44665C33.6655 8.44459 33.2859 8.44136 32.9062 8.43749C32.9251 8.38227 32.944 8.32705 32.9635 8.27016C33.0504 8.01554 33.1365 7.7607 33.2227 7.50585C33.2672 7.3756 33.2672 7.3756 33.3127 7.24273C33.4931 6.70729 33.6375 6.17876 33.75 5.62499C33.8507 5.6204 33.9513 5.61581 34.0551 5.61108C34.1897 5.60403 34.3243 5.59695 34.459 5.58983C34.525 5.58693 34.5911 5.58403 34.6591 5.58105C35.2283 5.54957 35.732 5.49527 36.1758 5.10937C36.5001 4.72778 36.4952 4.47009 36.4889 3.98217C36.4625 3.67775 36.3892 3.51076 36.1875 3.28124C35.6756 2.90405 35.1346 2.88957 34.5176 2.85351C34.184 2.8332 34.184 2.8332 33.8438 2.81249C33.8438 1.88437 33.8438 0.956241 33.8438 -9.05804e-06Z" fill="#F29736"/>
<path d="M19.7812 13.125C20.0597 13.2178 20.3381 13.3106 20.625 13.4062C20.8259 13.4717 21.027 13.5362 21.2285 13.5996C21.3231 13.6297 21.4178 13.6598 21.5153 13.6908C23.8475 14.333 25.9867 13.9222 28.2188 13.125C28.2188 14.4244 28.2188 15.7238 28.2188 17.0625C28.0331 17.0316 27.8475 17.0006 27.6562 16.9688C27.421 16.9603 27.1856 16.9568 26.9502 16.9566C26.8477 16.9564 26.8477 16.9564 26.7431 16.9561C26.5184 16.9557 26.2937 16.956 26.0691 16.9563C25.9119 16.9562 25.7548 16.9561 25.5977 16.956C25.2687 16.9559 24.9398 16.9561 24.6109 16.9565C24.1908 16.9571 23.7707 16.9568 23.3507 16.9562C23.0262 16.9559 22.7018 16.956 22.3773 16.9562C22.2225 16.9563 22.0677 16.9562 21.9129 16.956C21.6958 16.9557 21.4786 16.9561 21.2615 16.9566C21.0767 16.9567 21.0767 16.9567 20.8881 16.9568C20.5177 16.9692 20.149 17.0165 19.7812 17.0625C19.7812 15.7631 19.7812 14.4637 19.7812 13.125Z" fill="#F6B73B"/>
<path d="M24 33.8438C24.6993 33.9436 24.7681 33.9556 25.2188 34.4062C25.3994 34.6964 25.4292 34.9148 25.4275 35.2541C25.4275 35.3948 25.4275 35.3948 25.4275 35.5384C25.4265 35.639 25.4256 35.7396 25.4246 35.8433C25.4243 35.9468 25.424 36.0503 25.4238 36.1569C25.4227 36.4874 25.4204 36.8179 25.418 37.1484C25.417 37.3726 25.4162 37.5967 25.4154 37.8208C25.4133 38.3701 25.4102 38.9194 25.4062 39.4688C25.5283 39.4655 25.6504 39.4622 25.7761 39.4589C25.938 39.4562 26.0999 39.4537 26.2617 39.4512C26.342 39.4488 26.4222 39.4465 26.5049 39.444C26.993 39.4384 27.3285 39.4751 27.75 39.75C28.147 40.1899 28.2473 40.4534 28.2389 41.0328C28.198 41.4732 28.0216 41.7347 27.7031 42.0293C26.6312 42.7528 25.2868 42.2812 24 42.2812C24 39.4969 24 36.7125 24 33.8438Z" fill="#FEB44C"/>
<path d="M28.2188 13.125C28.2188 14.4244 28.2188 15.7238 28.2188 17.0625C27.9403 17.0161 27.9403 17.0161 27.6562 16.9688C27.5233 16.9592 27.39 16.9525 27.2568 16.9495C27.147 16.9467 27.147 16.9467 27.0351 16.9438C26.958 16.9423 26.8809 16.9407 26.8015 16.9391C26.681 16.9362 26.681 16.9362 26.558 16.9332C26.303 16.9271 26.048 16.9215 25.793 16.916C25.6194 16.912 25.4458 16.9079 25.2722 16.9037C24.8482 16.8937 24.4241 16.8844 24 16.875C24 15.9469 24 15.0187 24 14.0625C24.2475 14.0393 24.495 14.0161 24.75 13.9922C25.8639 13.875 26.9321 13.6416 27.9635 13.1938C28.125 13.125 28.125 13.125 28.2188 13.125Z" fill="#F29736"/>
</g>
<defs>
<clipPath id="clip0_445_4859">
<rect width="48" height="48" fill="white"/>
</clipPath>
</defs>
</svg>
