<svg width="46" height="48" viewBox="0 0 46 48" fill="none" xmlns="http://www.w3.org/2000/svg">
<g clip-path="url(#clip0_445_4561)">
<path d="M2.03917 0.726149C2.10739 0.725849 2.1756 0.725548 2.24588 0.725239C2.47469 0.72446 2.70347 0.725016 2.93228 0.725566C3.09788 0.725283 3.26349 0.724919 3.4291 0.724479C3.88438 0.723513 4.33966 0.723721 4.79495 0.724121C5.28588 0.724352 5.77681 0.723508 6.26775 0.722805C7.22962 0.721609 8.1915 0.721442 9.15338 0.721662C9.93508 0.721829 10.7168 0.721665 11.4985 0.721266C11.6653 0.721182 11.6653 0.721182 11.8354 0.721097C12.0612 0.720983 12.2871 0.720869 12.5129 0.720755C14.3903 0.719851 16.2677 0.71981 18.1451 0.720315C18.2048 0.720331 18.2645 0.720347 18.326 0.720363C18.4468 0.720396 18.5675 0.720429 18.6883 0.720461C20.5672 0.720964 22.446 0.72022 24.3249 0.71849C26.4359 0.716547 28.5468 0.715545 30.6577 0.715918C31.7754 0.716098 32.8931 0.715863 34.0108 0.714539C34.9623 0.713424 35.9138 0.713289 36.8653 0.714426C37.3509 0.714979 37.8364 0.715078 38.322 0.713957C38.7664 0.712942 39.2109 0.713225 39.6553 0.714544C39.8162 0.714793 39.977 0.714567 40.1378 0.713818C40.3565 0.712871 40.575 0.71366 40.7937 0.714876C40.8873 0.713848 40.8873 0.713848 40.9827 0.712799C41.471 0.718423 41.9909 0.810009 42.3645 1.16074C42.7417 1.6179 42.8775 1.95172 42.883 2.55021C42.8844 2.66788 42.8859 2.78556 42.8874 2.9068C42.8879 3.03504 42.8884 3.16327 42.8888 3.29151C42.8896 3.4237 42.8904 3.55589 42.8913 3.68808C42.8927 3.96516 42.8934 4.24224 42.8937 4.51932C42.8942 4.87282 42.8976 5.22621 42.9017 5.57968C42.9044 5.85283 42.905 6.12595 42.9051 6.39911C42.9055 6.52933 42.9066 6.65954 42.9085 6.78975C42.9185 7.54316 42.9124 8.1428 42.4063 8.71876C42.0173 9.06726 41.6593 9.16245 41.1597 9.21094C41.0669 9.22182 41.0669 9.22182 40.9723 9.23292C40.8215 9.2504 40.6705 9.26602 40.5195 9.28126C40.6048 9.35087 40.69 9.42048 40.7778 9.49219C41.1652 9.83359 41.2778 10.1304 41.3306 10.667C41.3246 11.1769 41.1541 11.5914 40.8564 11.9883C40.5032 12.2731 40.1687 12.4688 39.7109 12.4688C39.7109 15.1603 39.7109 17.8519 39.7109 20.625C39.8888 20.6559 40.0667 20.6869 40.25 20.7188C40.6891 20.9754 41.0368 21.2492 41.2165 21.7537C41.3469 22.2548 41.3631 22.6803 41.1484 23.1563C40.9486 23.4557 40.7462 23.7411 40.4297 23.9063C40.4859 23.9066 40.5421 23.9069 40.6 23.9073C41.186 23.9112 41.7718 23.9177 42.3577 23.9257C42.5763 23.9284 42.7948 23.9303 43.0134 23.9317C43.3279 23.9337 43.6423 23.938 43.9568 23.9429C44.0542 23.943 44.1516 23.9431 44.252 23.9432C44.8024 23.9543 45.1326 23.9902 45.5508 24.375C45.8457 24.7243 46.0104 24.9435 46.0138 25.4082C46.0146 25.4871 46.0154 25.5659 46.0162 25.6472C46.0167 25.7772 46.0167 25.7772 46.0173 25.9098C46.0184 26.0466 46.0184 26.0466 46.0196 26.1861C46.0218 26.4889 46.0233 26.7917 46.0246 27.0945C46.0253 27.2495 46.0253 27.2495 46.026 27.4077C46.0284 27.955 46.0302 28.5024 46.0315 29.0497C46.033 29.6146 46.037 30.1795 46.0416 30.7444C46.0446 31.179 46.0456 31.6137 46.0461 32.0483C46.0467 32.2565 46.0481 32.4647 46.0502 32.6729C46.0531 32.9648 46.0531 33.2567 46.0524 33.5486C46.0539 33.6342 46.0554 33.7197 46.0569 33.8079C46.0514 34.3948 45.9197 34.8 45.5508 35.25C44.9443 35.7699 44.1386 35.6877 43.3945 35.6953C43.2636 35.698 43.1327 35.7008 43.0018 35.7037C42.6835 35.7106 42.3652 35.7153 42.0469 35.7188C42.1118 35.7715 42.1118 35.7715 42.1781 35.8253C42.2349 35.8733 42.2916 35.9213 42.3501 35.9707C42.4064 36.0175 42.4627 36.0643 42.5207 36.1124C42.9218 36.549 42.8826 37.0756 42.883 37.6433C42.8837 37.7327 42.8845 37.8221 42.8853 37.9142C42.8874 38.2094 42.8882 38.5045 42.8888 38.7997C42.8896 39.0053 42.8904 39.2109 42.8913 39.4166C42.8927 39.8476 42.8934 40.2785 42.8937 40.7096C42.8942 41.2609 42.8976 41.8122 42.9017 42.3636C42.9044 42.7883 42.905 43.213 42.9051 43.6378C42.9055 43.841 42.9066 44.0442 42.9085 44.2474C42.9109 44.5322 42.9104 44.8168 42.9093 45.1016C42.9113 45.2266 42.9113 45.2266 42.9134 45.3542C42.9068 45.9367 42.7665 46.332 42.4063 46.7813C41.8849 47.2142 41.4867 47.264 40.8384 47.2623C40.7704 47.2625 40.7024 47.2627 40.6323 47.2629C40.4032 47.2634 40.174 47.2633 39.9448 47.2632C39.7793 47.2634 39.6139 47.2637 39.4484 47.264C38.9928 47.2648 38.5371 47.2649 38.0814 47.265C37.5903 47.2652 37.0993 47.2659 36.6082 47.2665C35.534 47.2678 34.4598 47.2684 33.3855 47.2688C32.715 47.269 32.0445 47.2694 31.374 47.2699C29.5183 47.271 27.6626 47.272 25.8068 47.2723C25.6868 47.2723 25.5668 47.2723 25.4468 47.2723C25.3265 47.2724 25.2062 47.2724 25.0859 47.2724C24.8446 47.2724 24.6033 47.2725 24.3619 47.2725C24.3021 47.2725 24.2422 47.2726 24.1806 47.2726C22.2402 47.2729 20.2998 47.2744 18.3593 47.2766C16.3079 47.2789 14.2565 47.2802 12.2051 47.2803C11.0868 47.2804 9.96847 47.2809 8.85016 47.2826C7.89799 47.2841 6.94583 47.2845 5.99366 47.2838C5.50774 47.2834 5.02183 47.2835 4.53591 47.2848C4.09111 47.286 3.64632 47.2859 3.20152 47.2847C3.04058 47.2846 2.87963 47.2848 2.71869 47.2857C2.49986 47.2867 2.28111 47.286 2.06229 47.2849C1.96863 47.2859 1.96863 47.2859 1.87308 47.287C1.35134 47.2812 0.848859 47.1643 0.443954 46.8043C0.403072 46.7484 0.362189 46.6924 0.320068 46.6348C0.277564 46.5786 0.23506 46.5224 0.191268 46.4645C0.0216978 46.2104 -0.0115182 46.0529 -0.013223 45.7474C-0.0138658 45.6684 -0.0145087 45.5894 -0.015171 45.5081C-0.0154126 45.4212 -0.0156542 45.3344 -0.0159031 45.2449C-0.0164935 45.1536 -0.0170838 45.0623 -0.0176921 44.9682C-0.0194677 44.665 -0.0205135 44.3617 -0.0214087 44.0585C-0.0217748 43.955 -0.022141 43.8515 -0.0225182 43.7449C-0.0243937 43.1971 -0.025678 42.6493 -0.0265194 42.1014C-0.0275129 41.5357 -0.0306024 40.9699 -0.0341714 40.4042C-0.0365213 39.9691 -0.0372729 39.5341 -0.0375955 39.0991C-0.038033 38.8905 -0.0390775 38.682 -0.0407434 38.4735C-0.0429324 38.1813 -0.0428485 37.8892 -0.0422245 37.597C-0.0433754 37.5111 -0.0445263 37.4252 -0.0457121 37.3367C-0.0413904 36.7804 0.0477066 36.4553 0.359374 36C0.863545 35.5835 1.233 35.5218 1.86285 35.5016C1.97925 35.4977 2.09564 35.4937 2.21556 35.4897C2.33804 35.486 2.46052 35.4822 2.58301 35.4785C2.70689 35.4745 2.83078 35.4704 2.95467 35.4663C3.25753 35.4563 3.5604 35.4467 3.86328 35.4375C3.81892 35.3866 3.77457 35.3358 3.72887 35.2833C3.67131 35.2163 3.61375 35.1492 3.55444 35.0801C3.49712 35.0137 3.43979 34.9474 3.38072 34.879C3.16846 34.6012 3.13327 34.3691 3.1307 34.0251C3.12993 33.9477 3.12916 33.8703 3.12836 33.7906C3.12798 33.706 3.1276 33.6214 3.1272 33.5342C3.1261 33.4002 3.1261 33.4002 3.12498 33.2634C3.12274 32.9673 3.12126 32.6711 3.11996 32.3749C3.11949 32.2737 3.11901 32.1725 3.11851 32.0682C3.11611 31.5324 3.11437 30.9967 3.11308 30.4609C3.11158 29.908 3.10756 29.3552 3.10298 28.8024C3.09995 28.3769 3.09892 27.9513 3.09841 27.5258C3.09781 27.322 3.09644 27.1183 3.09429 26.9146C3.09144 26.6289 3.09144 26.3434 3.09211 26.0577C3.09063 25.974 3.08916 25.8904 3.08764 25.8042C3.09319 25.2193 3.23408 24.8271 3.59375 24.375C4.15014 23.8932 4.77934 23.9266 5.48047 23.9063C5.39569 23.88 5.31092 23.8538 5.22357 23.8268C3.18745 23.1733 1.63302 21.847 0.628906 19.875C-0.178146 18.0326 -0.318546 15.7894 0.359374 13.875C1.03968 12.1276 2.28599 10.55 3.95312 9.75001C4.36962 9.58484 4.78914 9.43111 5.21094 9.28126C5.10086 9.27989 4.99079 9.27852 4.87738 9.27711C4.46595 9.27165 4.05456 9.26441 3.64317 9.25665C3.46568 9.25355 3.28819 9.25092 3.11069 9.24878C2.85439 9.24561 2.59817 9.2407 2.3419 9.23548C2.26354 9.23488 2.18517 9.23428 2.10443 9.23367C1.51415 9.21915 0.906254 9.14166 0.43518 8.74183C0.37542 8.6579 0.37542 8.6579 0.314453 8.57227C0.251913 8.48798 0.251913 8.48798 0.18811 8.40198C-0.016931 8.08487 -0.0127732 7.86367 -0.0159031 7.48215C-0.0170563 7.36011 -0.0182094 7.23806 -0.0193975 7.11231C-0.0201314 6.97836 -0.0208002 6.84441 -0.0214087 6.71046C-0.0217748 6.64307 -0.022141 6.57568 -0.0225182 6.50624C-0.0243928 6.14939 -0.0256774 5.79254 -0.0265194 5.43568C-0.0275122 5.06767 -0.0306012 4.69972 -0.0341714 4.33174C-0.0365248 4.04831 -0.0372732 3.76489 -0.0375955 3.48145C-0.0380322 3.34585 -0.0390744 3.21024 -0.0407434 3.07465C-0.0429391 2.88441 -0.0426303 2.69414 -0.0422245 2.50388C-0.0427515 2.39578 -0.0432786 2.28767 -0.0438216 2.17629C0.0240747 1.70948 0.249995 1.42063 0.572753 1.10157C1.03957 0.776828 1.48966 0.722543 2.03917 0.726149Z" fill="#F4EEC8"/>
<path d="M1.86677 35.5194C1.92825 35.5193 1.98973 35.5192 2.05307 35.519C2.26007 35.5187 2.46707 35.519 2.67407 35.5193C2.82363 35.5192 2.97319 35.5191 3.12276 35.5189C3.53465 35.5185 3.94654 35.5187 4.35843 35.519C4.80251 35.5192 5.24659 35.5189 5.69068 35.5186C6.56196 35.5182 7.43324 35.5183 8.30453 35.5186C9.01446 35.5188 9.7244 35.5188 10.4343 35.5187C10.586 35.5187 10.586 35.5187 10.7407 35.5186C10.9461 35.5186 11.1515 35.5186 11.357 35.5186C13.2866 35.5183 15.2162 35.5186 17.1459 35.5191C18.7942 35.5195 20.4425 35.5194 22.0908 35.519C24.0083 35.5185 25.9258 35.5183 27.8432 35.5186C28.049 35.5186 28.2547 35.5187 28.4604 35.5187C28.5615 35.5187 28.6627 35.5187 28.767 35.5187C29.4726 35.5188 30.1783 35.5187 30.8839 35.5185C31.7491 35.5182 32.6143 35.5183 33.4794 35.5188C33.9191 35.519 34.3589 35.5191 34.7986 35.5188C35.8164 35.5181 36.8342 35.5206 37.8521 35.5292C38.0183 35.5306 38.1846 35.5319 38.3509 35.5331C38.8779 35.5369 39.4048 35.5428 39.9318 35.5516C40.0985 35.5541 40.2652 35.556 40.4319 35.5573C40.6623 35.5592 40.8925 35.5635 41.1228 35.5683C41.2243 35.5684 41.2243 35.5684 41.3279 35.5685C41.7882 35.5817 42.0501 35.6997 42.4062 36C42.723 36.3663 42.8656 36.6379 42.8693 37.1311C42.8701 37.2085 42.8708 37.2859 42.8716 37.3656C42.8722 37.4925 42.8722 37.4925 42.8728 37.622C42.8735 37.7114 42.8743 37.8007 42.875 37.8928C42.8773 38.189 42.8787 38.4852 42.88 38.7814C42.8805 38.8826 42.881 38.9838 42.8815 39.088C42.8839 39.6238 42.8856 40.1596 42.8869 40.6954C42.8884 41.2482 42.8924 41.801 42.897 42.3538C42.9 42.7794 42.9011 43.2049 42.9016 43.6305C42.9022 43.8342 42.9036 44.038 42.9057 44.2417C42.9086 44.5274 42.9086 44.8129 42.9079 45.0986C42.9094 45.1822 42.9108 45.2659 42.9124 45.352C42.9068 45.9358 42.7675 46.3312 42.4062 46.7812C41.8849 47.2142 41.4867 47.264 40.8384 47.2623C40.7704 47.2625 40.7024 47.2627 40.6323 47.2629C40.4031 47.2634 40.174 47.2633 39.9448 47.2632C39.7793 47.2634 39.6139 47.2637 39.4484 47.264C38.9928 47.2648 38.5371 47.2649 38.0814 47.265C37.5903 47.2652 37.0993 47.2659 36.6082 47.2665C35.534 47.2678 34.4598 47.2683 33.3855 47.2688C32.715 47.269 32.0445 47.2694 31.374 47.2698C29.5183 47.271 27.6626 47.2719 25.8068 47.2723C25.6868 47.2723 25.5668 47.2723 25.4468 47.2723C25.3265 47.2723 25.2062 47.2724 25.0859 47.2724C24.8446 47.2724 24.6032 47.2725 24.3619 47.2725C24.3021 47.2725 24.2422 47.2725 24.1806 47.2725C22.2402 47.2729 20.2998 47.2744 18.3593 47.2766C16.3079 47.2789 14.2565 47.2801 12.2051 47.2803C11.0868 47.2803 9.96847 47.2809 8.85016 47.2826C7.89799 47.284 6.94583 47.2845 5.99366 47.2837C5.50774 47.2834 5.02183 47.2835 4.53591 47.2848C4.09111 47.286 3.64632 47.2859 3.20152 47.2847C3.04058 47.2845 2.87963 47.2848 2.71869 47.2856C2.49986 47.2867 2.28111 47.286 2.06229 47.2849C1.96863 47.2859 1.96863 47.2859 1.87308 47.287C1.35134 47.2812 0.84886 47.1643 0.443954 46.8043C0.382631 46.7204 0.382631 46.7204 0.320068 46.6348C0.256313 46.5505 0.256313 46.5505 0.191269 46.4645C0.0216983 46.2104 -0.0115176 46.0529 -0.0132224 45.7474C-0.0138653 45.6684 -0.0145081 45.5894 -0.0151705 45.508C-0.015412 45.4212 -0.0156536 45.3344 -0.0159025 45.2449C-0.0164929 45.1536 -0.0170833 45.0623 -0.0176916 44.9682C-0.0194672 44.6649 -0.0205129 44.3617 -0.0214081 44.0585C-0.0217742 43.955 -0.0221404 43.8515 -0.0225177 43.7449C-0.0243932 43.1971 -0.0256774 42.6492 -0.0265188 42.1014C-0.0275123 41.5356 -0.0306018 40.9699 -0.0341709 40.4041C-0.0365208 39.9691 -0.0372723 39.5341 -0.0375949 39.099C-0.0380324 38.8905 -0.0390769 38.682 -0.0407428 38.4735C-0.0429318 38.1813 -0.042848 37.8892 -0.0422239 37.597C-0.0433748 37.5111 -0.0445257 37.4252 -0.0457115 37.3367C-0.0413898 36.7804 0.0477072 36.4553 0.359375 36C0.869212 35.5788 1.22941 35.5195 1.86677 35.5194Z" fill="#E54C3C"/>
<path d="M4.93555 23.9528C5.00498 23.9523 5.07442 23.9517 5.14595 23.9512C5.37839 23.9498 5.61073 23.9511 5.84317 23.9524C6.01157 23.952 6.17998 23.9514 6.34838 23.9506C6.81099 23.9491 7.27357 23.9498 7.73618 23.951C8.23513 23.9518 8.73408 23.9505 9.23303 23.9495C10.2104 23.9478 11.1877 23.9482 12.1651 23.9493C12.9593 23.9501 13.7534 23.9502 14.5476 23.9498C14.6606 23.9498 14.7735 23.9497 14.8899 23.9497C15.1194 23.9495 15.3489 23.9494 15.5783 23.9493C17.6694 23.9483 19.7604 23.9493 21.8515 23.9513C23.7605 23.9531 25.6696 23.9529 27.5786 23.9511C29.7234 23.9491 31.8682 23.9483 34.013 23.9495C34.2416 23.9496 34.4702 23.9497 34.6988 23.9498C34.8113 23.9499 34.9238 23.9499 35.0397 23.95C35.8331 23.9503 36.6265 23.9498 37.42 23.9489C38.3866 23.9479 39.3532 23.9481 40.3198 23.9501C40.8131 23.9511 41.3065 23.9515 41.7998 23.9503C42.2512 23.9491 42.7026 23.9498 43.154 23.9518C43.3175 23.9522 43.481 23.952 43.6446 23.9511C43.8665 23.9499 44.0882 23.9511 44.3101 23.9528C44.4059 23.9515 44.4059 23.9515 44.5036 23.9502C44.9523 23.9572 45.2038 24.0843 45.5508 24.375C45.8457 24.7243 46.0104 24.9435 46.0138 25.4082C46.0146 25.4871 46.0154 25.5659 46.0162 25.6472C46.0167 25.7772 46.0167 25.7772 46.0173 25.9098C46.0181 26.001 46.0188 26.0922 46.0195 26.1861C46.0218 26.4889 46.0233 26.7917 46.0246 27.0945C46.025 27.1979 46.0255 27.3012 46.026 27.4077C46.0284 27.955 46.0302 28.5024 46.0314 29.0497C46.0329 29.6146 46.037 30.1795 46.0415 30.7444C46.0446 31.179 46.0456 31.6137 46.0461 32.0483C46.0467 32.2565 46.0481 32.4647 46.0502 32.6729C46.0531 32.9648 46.0531 33.2567 46.0524 33.5486C46.0539 33.6342 46.0554 33.7197 46.0569 33.8079C46.0522 34.3085 45.966 34.6543 45.7174 35.0828C45.0619 35.7407 44.2911 35.6776 43.442 35.6707C43.2997 35.671 43.1573 35.6714 43.015 35.6719C42.6246 35.6729 42.2342 35.6716 41.8438 35.6699C41.4222 35.6685 41.0006 35.6692 40.579 35.6697C39.7519 35.6703 38.9249 35.6689 38.0979 35.6668C37.1299 35.6645 36.1619 35.6642 35.1939 35.6641C33.4604 35.6637 31.7269 35.6616 29.9934 35.6585C28.3232 35.6554 26.653 35.6534 24.9829 35.6527C24.8807 35.6526 24.7785 35.6526 24.6732 35.6525C24.2621 35.6524 23.851 35.6522 23.4399 35.652C21.7384 35.6513 20.0369 35.6496 18.3355 35.6479C17.9521 35.6475 17.5687 35.6472 17.1853 35.6469C15.0899 35.6451 12.9945 35.6417 10.8991 35.631C10.0787 35.6269 9.25836 35.6246 8.43793 35.6256C7.91001 35.6261 7.38213 35.6244 6.85422 35.6207C6.5585 35.6187 6.26288 35.618 5.96715 35.6196C5.65219 35.6211 5.33749 35.6186 5.02255 35.6151C4.93256 35.6165 4.84257 35.6179 4.74986 35.6193C4.16934 35.6071 3.87535 35.4618 3.46 35.0371C3.0779 34.581 3.11741 34.0901 3.117 33.513C3.11626 33.4236 3.11551 33.3342 3.11474 33.2421C3.11257 32.9469 3.11178 32.6518 3.11119 32.3566C3.11038 32.151 3.10957 31.9453 3.10873 31.7397C3.10725 31.3087 3.10656 30.8777 3.1063 30.4467C3.10582 29.8954 3.10243 29.344 3.09833 28.7927C3.09565 28.368 3.095 27.9432 3.09491 27.5185C3.09454 27.3153 3.09342 27.112 3.09154 26.9088C3.08912 26.6241 3.08956 26.3395 3.09068 26.0547C3.08935 25.9714 3.08802 25.888 3.08664 25.8021C3.09298 25.2358 3.20547 24.7884 3.59375 24.375C4.04916 24.0575 4.38387 23.9452 4.93555 23.9528Z" fill="#7D6599"/>
<path d="M2.03918 0.726149C2.10739 0.725849 2.1756 0.725548 2.24588 0.725239C2.47469 0.72446 2.70347 0.725016 2.93228 0.725566C3.09789 0.725283 3.26349 0.724919 3.4291 0.724479C3.88438 0.723513 4.33966 0.723721 4.79495 0.724121C5.28588 0.724352 5.77682 0.723508 6.26775 0.722805C7.22963 0.721609 8.1915 0.721442 9.15338 0.721662C9.93508 0.721829 10.7168 0.721665 11.4985 0.721266C11.6653 0.721182 11.6653 0.721182 11.8354 0.721097C12.0612 0.720983 12.2871 0.720869 12.5129 0.720755C14.3903 0.719851 16.2677 0.71981 18.1451 0.720315C18.2048 0.720331 18.2645 0.720347 18.326 0.720363C18.4468 0.720396 18.5675 0.720429 18.6883 0.720461C20.5672 0.720964 22.4461 0.72022 24.3249 0.71849C26.4359 0.716547 28.5468 0.715545 30.6577 0.715918C31.7754 0.716098 32.8931 0.715863 34.0108 0.714539C34.9623 0.713424 35.9138 0.713289 36.8653 0.714426C37.3509 0.714979 37.8364 0.715078 38.322 0.713957C38.7664 0.712942 39.2109 0.713225 39.6554 0.714544C39.8162 0.714793 39.977 0.714567 40.1378 0.713818C40.3565 0.712871 40.575 0.71366 40.7937 0.714876C40.8873 0.713848 40.8873 0.713848 40.9827 0.712799C41.471 0.718423 41.9909 0.810009 42.3645 1.16074C42.7417 1.6179 42.8775 1.95172 42.883 2.55021C42.8844 2.66788 42.8859 2.78556 42.8874 2.9068C42.8879 3.03504 42.8884 3.16327 42.8888 3.29151C42.8896 3.4237 42.8904 3.55589 42.8913 3.68808C42.8928 3.96516 42.8934 4.24224 42.8937 4.51932C42.8942 4.87282 42.8976 5.22621 42.9017 5.57968C42.9044 5.85283 42.905 6.12595 42.9051 6.39911C42.9055 6.52933 42.9066 6.65954 42.9085 6.78975C42.9185 7.54037 42.9148 8.14681 42.4063 8.71876C41.8738 9.17015 41.4054 9.20159 40.7406 9.19983C40.6728 9.20002 40.605 9.20021 40.5352 9.20041C40.3073 9.20094 40.0795 9.20081 39.8516 9.20067C39.6869 9.20092 39.5221 9.2012 39.3574 9.20152C38.9041 9.20227 38.4509 9.20244 37.9976 9.20251C37.509 9.20268 37.0204 9.20339 36.5318 9.20402C35.4631 9.2053 34.3945 9.20586 33.3258 9.20627C32.6587 9.20653 31.9916 9.20693 31.3245 9.20735C29.4778 9.2085 27.6312 9.20946 25.7846 9.20978C25.6073 9.20981 25.6073 9.20981 25.4264 9.20984C25.3079 9.20986 25.1894 9.20988 25.0673 9.2099C24.8272 9.20994 24.5871 9.20999 24.347 9.21003C24.2577 9.21004 24.2577 9.21004 24.1666 9.21006C22.2361 9.2104 20.3057 9.21189 18.3752 9.21408C16.3339 9.21638 14.2926 9.21767 12.2514 9.21778C11.1387 9.21787 10.0261 9.21841 8.91348 9.22011C7.96615 9.22155 7.01883 9.22203 6.0715 9.22126C5.58811 9.22089 5.10474 9.22098 4.62135 9.22229C4.17876 9.22349 3.7362 9.22338 3.29361 9.22224C3.13358 9.22206 2.97354 9.22235 2.8135 9.22316C1.01241 9.23176 1.01241 9.23176 0.435182 8.74183C0.375422 8.6579 0.375422 8.6579 0.314455 8.57227C0.251915 8.48798 0.251915 8.48798 0.188112 8.40198C-0.0169288 8.08487 -0.012771 7.86367 -0.0159009 7.48215C-0.0170541 7.36011 -0.0182072 7.23806 -0.0193953 7.11231C-0.0201292 6.97836 -0.020798 6.84441 -0.0214065 6.71046C-0.0217726 6.64307 -0.0221388 6.57568 -0.022516 6.50624C-0.0243906 6.14939 -0.0256752 5.79254 -0.0265172 5.43568C-0.0275101 5.06767 -0.030599 4.69972 -0.0341693 4.33174C-0.0365226 4.04831 -0.037271 3.76489 -0.0375933 3.48145C-0.03803 3.34585 -0.0390722 3.21024 -0.0407412 3.07465C-0.0429369 2.88441 -0.0426281 2.69414 -0.0422223 2.50388C-0.0427494 2.39578 -0.0432764 2.28767 -0.0438194 2.17629C0.0240769 1.70948 0.249997 1.42063 0.572756 1.10157C1.03957 0.776828 1.48966 0.722543 2.03918 0.726149Z" fill="#3B96D2"/>
<path d="M7.50588 9.06869C7.64666 9.06834 7.78744 9.06791 7.92822 9.0674C8.31321 9.06626 8.6982 9.06628 9.08319 9.0665C9.49909 9.06654 9.91499 9.06551 10.3309 9.06462C11.1448 9.06306 11.9588 9.06254 12.7727 9.06244C13.4342 9.06235 14.0957 9.06197 14.7571 9.06137C16.6329 9.05972 18.5087 9.05885 20.3845 9.059C20.5361 9.05901 20.5361 9.05901 20.6907 9.05902C20.7918 9.05903 20.893 9.05903 20.9972 9.05904C22.6383 9.05912 24.2794 9.05732 25.9204 9.05468C27.6059 9.05199 29.2913 9.05069 30.9767 9.05085C31.9229 9.05092 32.869 9.0504 33.8151 9.04838C34.6201 9.04668 35.4252 9.04627 36.2303 9.04754C36.6411 9.04815 37.0518 9.04816 37.4626 9.04654C37.8386 9.04507 38.2146 9.04533 38.5906 9.04697C38.7266 9.04725 38.8626 9.04691 38.9986 9.04587C39.8228 9.03997 40.3681 9.0651 40.9968 9.66798C41.2501 10.1182 41.3703 10.5846 41.2944 11.1068C41.131 11.6874 40.8676 12.0291 40.3631 12.3386C39.821 12.5703 39.2185 12.505 38.6433 12.5001C38.5056 12.4999 38.368 12.4999 38.2304 12.5C37.8528 12.4999 37.4753 12.498 37.0977 12.4959C36.6902 12.4939 36.2828 12.4936 35.8753 12.493C35.1693 12.4919 34.4633 12.4898 33.7573 12.487C32.7354 12.4831 31.7135 12.4811 30.6916 12.4796C29.032 12.4771 27.3725 12.4737 25.7129 12.4694C25.6136 12.4691 25.5143 12.4689 25.4119 12.4686C24.3043 12.4657 23.1967 12.4626 22.0891 12.4594C21.6876 12.4582 21.2862 12.4571 20.8847 12.4559C20.7857 12.4556 20.6866 12.4554 20.5846 12.4551C18.9317 12.4503 17.2789 12.4471 15.626 12.4449C14.607 12.4435 13.588 12.4409 12.569 12.4365C11.8703 12.4337 11.1717 12.4322 10.4731 12.4317C10.0703 12.4314 9.66749 12.4304 9.26468 12.4278C8.8954 12.4255 8.52616 12.4249 8.15687 12.4256C8.0238 12.4256 7.89072 12.4249 7.75765 12.4235C6.49763 12.4111 5.335 12.6868 4.38234 13.5971C3.56661 14.4992 3.18247 15.5287 3.2063 16.7611C3.31863 17.967 3.83297 19.0313 4.72346 19.8043C5.73062 20.5642 6.69977 20.6528 7.90901 20.645C8.04698 20.6449 8.18495 20.6447 8.32291 20.6447C8.70097 20.6444 9.07901 20.6429 9.45707 20.6413C9.86519 20.6397 10.2733 20.6392 10.6815 20.6386C11.3884 20.6374 12.0953 20.6356 12.8022 20.6334C13.8251 20.6302 14.8479 20.6284 15.8708 20.627C17.5314 20.6248 19.1921 20.622 20.8527 20.6186C20.9521 20.6184 21.0514 20.6181 21.1538 20.6179C22.5643 20.615 23.9748 20.6115 25.3853 20.6078C25.4846 20.6076 25.584 20.6073 25.6864 20.607C25.7856 20.6068 25.8848 20.6065 25.9871 20.6062C27.6415 20.6019 29.296 20.599 30.9505 20.5974C31.9708 20.5963 32.9912 20.5939 34.0115 20.59C34.7105 20.5875 35.4095 20.5863 36.1085 20.5861C36.5118 20.586 36.9151 20.5852 37.3184 20.5828C37.6877 20.5807 38.057 20.5802 38.4263 20.5811C38.5598 20.5812 38.6933 20.5806 38.8268 20.5792C39.7045 20.5711 40.295 20.6057 40.9575 21.252C41.2565 21.7383 41.387 22.2169 41.2832 22.793C41.1458 23.2584 40.8513 23.6532 40.4564 23.9132C40.1866 24.0267 39.9662 24.0238 39.6752 24.0241C39.6174 24.0245 39.5597 24.0248 39.5001 24.0251C39.3057 24.026 39.1113 24.0255 38.9169 24.0251C38.7765 24.0254 38.636 24.0259 38.4955 24.0264C38.1088 24.0275 37.7221 24.0275 37.3354 24.0273C36.9186 24.0272 36.5017 24.0283 36.0849 24.0292C35.2677 24.0307 34.4505 24.0312 33.6334 24.0313C32.9688 24.0314 32.3042 24.0318 31.6396 24.0324C29.7547 24.0341 27.8699 24.0349 25.9851 24.0348C25.8326 24.0348 25.8326 24.0348 25.677 24.0348C25.5243 24.0347 25.5243 24.0347 25.3686 24.0347C23.721 24.0347 22.0735 24.0364 20.426 24.0391C18.7338 24.0418 17.0415 24.0431 15.3493 24.0429C14.3995 24.0429 13.4497 24.0434 12.4999 24.0454C11.6906 24.0471 10.8814 24.0475 10.0721 24.0462C9.65963 24.0456 9.24715 24.0456 8.83465 24.0472C8.45608 24.0487 8.07755 24.0484 7.69899 24.0468C7.56294 24.0465 7.42688 24.0469 7.29084 24.0479C5.19647 24.063 3.43502 23.312 1.90356 21.8027C0.406845 20.1464 -0.0947652 18.1573 -0.034043 15.9386C0.0601687 13.9697 0.960635 12.2365 2.31909 10.8926C3.85675 9.52838 5.53407 9.06401 7.50588 9.06869Z" fill="#F19C1F"/>
<path d="M16.3734 27.223C16.4465 27.2224 16.5197 27.2218 16.595 27.2212C16.8394 27.2197 17.0837 27.2217 17.3281 27.2236C17.5036 27.2232 17.6791 27.2227 17.8546 27.222C18.3307 27.2207 18.8068 27.2223 19.2829 27.2245C19.7812 27.2263 20.2794 27.2258 20.7777 27.2256C21.6143 27.2256 22.4509 27.2274 23.2875 27.2304C24.2549 27.2339 25.2223 27.2347 26.1897 27.2341C27.1203 27.2335 28.0508 27.2345 28.9813 27.2363C29.3774 27.2371 29.7735 27.2373 30.1696 27.2372C30.6359 27.2371 31.1021 27.2384 31.5684 27.2409C31.7396 27.2415 31.9108 27.2417 32.082 27.2414C32.3156 27.2411 32.549 27.2424 32.7826 27.2443C32.8505 27.2438 32.9184 27.2433 32.9883 27.2428C33.3877 27.2482 33.6426 27.3068 33.9609 27.5625C34.123 27.8152 34.1635 28.0159 34.1667 28.3169C34.1679 28.3904 34.169 28.4639 34.1702 28.5397C34.1704 28.6183 34.1706 28.6969 34.1708 28.7779C34.1717 28.9003 34.1717 28.9003 34.1726 29.0252C34.1735 29.1975 34.1739 29.3699 34.1739 29.5422C34.1743 29.8054 34.1776 30.0684 34.181 30.3316C34.1815 30.4993 34.1819 30.6669 34.182 30.8346C34.1833 30.913 34.1846 30.9915 34.1859 31.0723C34.1831 31.452 34.1689 31.6409 33.9696 31.9693C33.6338 32.3025 33.3388 32.2641 32.8974 32.2644C32.787 32.265 32.787 32.265 32.6744 32.2657C32.4265 32.2669 32.1785 32.2675 31.9306 32.2681C31.7534 32.2688 31.5761 32.2696 31.3989 32.2704C30.8158 32.2729 30.2326 32.2743 29.6495 32.2756C29.449 32.2761 29.2485 32.2766 29.048 32.2771C28.2141 32.2792 27.3803 32.2809 26.5464 32.282C25.3502 32.2835 24.1539 32.2866 22.9576 32.292C22.1172 32.2956 21.2767 32.2974 20.4363 32.2979C19.934 32.2983 19.4317 32.2994 18.9293 32.3024C18.4569 32.3052 17.9844 32.3058 17.512 32.3047C17.3384 32.3047 17.1649 32.3055 16.9914 32.3071C16.7547 32.3093 16.5181 32.3085 16.2814 32.307C16.2125 32.3083 16.1437 32.3096 16.0728 32.3109C15.7136 32.3054 15.559 32.2635 15.2758 32.0249C15.0881 31.7737 15.037 31.6767 15.0342 31.3654C15.0316 31.2467 15.0316 31.2467 15.029 31.1255C15.03 30.9991 15.03 30.9991 15.0309 30.8701C15.0303 30.7824 15.0296 30.6947 15.029 30.6043C15.0283 30.4193 15.0287 30.2343 15.0302 30.0493C15.032 29.7665 15.0284 29.4841 15.0244 29.2013C15.0244 29.0212 15.0247 28.8412 15.0253 28.6611C15.0239 28.5768 15.0226 28.4926 15.0212 28.4057C15.0226 28.3265 15.024 28.2474 15.0254 28.1658C15.0256 28.0967 15.0257 28.0275 15.0259 27.9563C15.2379 27.3119 15.7958 27.213 16.3734 27.223Z" fill="#9EC8D2"/>
<path d="M2.05737 35.5206C2.13804 35.5206 2.21871 35.5206 2.30183 35.5206C2.56823 35.5206 2.83462 35.5214 3.10101 35.5221C3.28582 35.5223 3.47062 35.5224 3.65542 35.5225C4.14166 35.5228 4.62789 35.5238 5.11412 35.5248C5.61035 35.5258 6.10658 35.5262 6.60281 35.5267C7.57636 35.5277 8.5499 35.5293 9.52344 35.5312C9.52344 35.5622 9.52344 35.5931 9.52344 35.625C9.01941 35.625 8.51539 35.625 7.99609 35.625C7.99609 39.4612 7.99609 43.2975 7.99609 47.25C6.37284 47.2587 6.37284 47.2587 4.7168 47.2676C4.37625 47.2701 4.03569 47.2727 3.68482 47.2753C3.26605 47.2766 3.26605 47.2766 3.06944 47.2768C2.93335 47.2773 2.79727 47.2782 2.66119 47.2797C0.997411 47.2964 0.997411 47.2964 0.443954 46.8043C0.382631 46.7204 0.382631 46.7204 0.320068 46.6348C0.256313 46.5505 0.256313 46.5505 0.191269 46.4645C0.0216983 46.2104 -0.0115176 46.0529 -0.0132224 45.7474C-0.0138653 45.6684 -0.0145081 45.5894 -0.0151705 45.5081C-0.015412 45.4212 -0.0156536 45.3344 -0.0159025 45.2449C-0.0164929 45.1536 -0.0170833 45.0623 -0.0176916 44.9682C-0.0194672 44.6649 -0.0205129 44.3617 -0.0214081 44.0585C-0.0217742 43.955 -0.0221404 43.8515 -0.0225177 43.7449C-0.0243932 43.1971 -0.0256774 42.6492 -0.0265188 42.1014C-0.0275123 41.5356 -0.030602 40.9699 -0.0341711 40.4041C-0.0365209 39.9691 -0.0372723 39.5341 -0.0375949 39.0991C-0.0380324 38.8905 -0.0390769 38.682 -0.0407428 38.4735C-0.0429318 38.1813 -0.042848 37.8892 -0.0422239 37.597C-0.0433748 37.5111 -0.0445257 37.4252 -0.0457115 37.3367C-0.0413898 36.7804 0.0477072 36.4553 0.359375 36C0.919904 35.5369 1.36229 35.5175 2.05737 35.5206Z" fill="#E54C3B"/>
<path d="M34.8594 35.5312C38.9245 35.5312 38.9245 35.5312 39.9203 35.5507C40.0775 35.5534 40.2348 35.5554 40.392 35.5567C40.629 35.5587 40.8659 35.563 41.1028 35.5679C41.1724 35.568 41.242 35.5681 41.3138 35.5682C41.7756 35.5813 42.0372 35.6873 42.4062 36C42.723 36.3663 42.8656 36.6379 42.8693 37.1311C42.8701 37.2085 42.8708 37.2859 42.8716 37.3657C42.872 37.4503 42.8724 37.5349 42.8728 37.622C42.8739 37.7561 42.8739 37.7561 42.875 37.8928C42.8773 38.189 42.8787 38.4852 42.88 38.7814C42.8805 38.8826 42.881 38.9838 42.8815 39.088C42.8839 39.6238 42.8856 40.1596 42.8869 40.6954C42.8884 41.2482 42.8924 41.801 42.897 42.3538C42.9 42.7794 42.9011 43.2049 42.9016 43.6305C42.9022 43.8342 42.9036 44.038 42.9057 44.2417C42.9086 44.5274 42.9086 44.8129 42.9079 45.0986C42.9094 45.1822 42.9108 45.2659 42.9124 45.3521C42.9068 45.9358 42.7675 46.3312 42.4062 46.7813C41.8831 47.2157 41.5129 47.2618 40.8567 47.2606C40.7908 47.2607 40.7248 47.2607 40.6569 47.2607C40.444 47.2606 40.2312 47.2599 40.0184 47.2592C39.8867 47.259 39.7551 47.2589 39.6234 47.2589C39.136 47.2584 38.6486 47.2571 38.1611 47.2559C37.0716 47.2539 35.982 47.252 34.8594 47.25C34.8594 43.3828 34.8594 39.5156 34.8594 35.5312Z" fill="#E64B3B"/>
<path d="M33.2422 0.74999C35.2762 0.738709 35.2762 0.738709 36.1453 0.736257C36.7376 0.734577 37.3298 0.732594 37.9221 0.728772C38.3998 0.725709 38.8775 0.724033 39.3552 0.723305C39.5371 0.722787 39.7191 0.721775 39.9011 0.720253C40.1565 0.718202 40.412 0.717931 40.6675 0.71806C40.7422 0.717049 40.8169 0.716038 40.8938 0.714996C41.417 0.717864 41.9577 0.777869 42.364 1.16073C42.7421 1.61705 42.8775 1.95201 42.883 2.55019C42.8844 2.66787 42.8859 2.78554 42.8873 2.90678C42.8879 3.03502 42.8884 3.16326 42.8888 3.29149C42.8896 3.42368 42.8904 3.55587 42.8913 3.68806C42.8927 3.96514 42.8934 4.24222 42.8937 4.51931C42.8942 4.8728 42.8976 5.2262 42.9017 5.57966C42.9044 5.85281 42.905 6.12593 42.9051 6.39909C42.9055 6.52931 42.9066 6.65953 42.9085 6.78973C42.9185 7.54035 42.9148 8.14679 42.4062 8.71874C41.8343 9.20369 41.3196 9.20093 40.6165 9.18953C40.5366 9.18863 40.4568 9.18773 40.3746 9.1868C40.1116 9.18371 39.8486 9.17993 39.5856 9.17614C39.403 9.17386 39.2203 9.17162 39.0377 9.16943C38.5575 9.16355 38.0773 9.15707 37.5971 9.15047C37.0207 9.14267 36.4443 9.1356 35.8678 9.12842C34.9926 9.11742 34.1174 9.10549 33.2422 9.09374C33.2422 6.3403 33.2422 3.58686 33.2422 0.74999Z" fill="#3B97D2"/>
<path d="M2.15937 0.728706C2.23919 0.728679 2.31901 0.728651 2.40125 0.728623C2.66376 0.728753 2.92625 0.730209 3.18875 0.731681C3.37129 0.732031 3.55382 0.732298 3.73635 0.732485C4.21579 0.7332 4.69522 0.735041 5.17465 0.737117C5.75043 0.739376 6.3262 0.740234 6.90198 0.741327C7.7758 0.743143 8.64961 0.746737 9.52344 0.749992C9.52344 3.50343 9.52344 6.25687 9.52344 9.09374C5.39293 9.20717 5.39293 9.20717 3.9002 9.21001C3.70246 9.21064 3.50473 9.21195 3.307 9.21386C3.0108 9.21671 2.71463 9.2177 2.41841 9.21825C2.33111 9.21941 2.2438 9.22057 2.15384 9.22176C1.54196 9.21967 0.925073 9.15762 0.435182 8.74181C0.375422 8.65788 0.375422 8.65788 0.314455 8.57226C0.251915 8.48796 0.251915 8.48796 0.188112 8.40197C-0.0169288 8.08486 -0.012771 7.86365 -0.0159009 7.48214C-0.0170541 7.36009 -0.0182072 7.23804 -0.0193953 7.11229C-0.0201292 6.97834 -0.020798 6.84439 -0.0214065 6.71044C-0.0217726 6.64305 -0.0221388 6.57566 -0.022516 6.50623C-0.0243906 6.14937 -0.0256752 5.79252 -0.0265172 5.43566C-0.0275101 5.06766 -0.030599 4.69971 -0.0341693 4.33173C-0.0365226 4.04829 -0.037271 3.76488 -0.0375933 3.48144C-0.03803 3.34583 -0.0390722 3.21023 -0.0407412 3.07463C-0.0429369 2.88439 -0.0426281 2.69412 -0.0422223 2.50387C-0.0427494 2.39576 -0.0432764 2.28766 -0.0438194 2.17627C0.0240769 1.70947 0.249997 1.42062 0.572756 1.10155C1.08446 0.745589 1.56525 0.723331 2.15937 0.728706Z" fill="#3B97D2"/>
<path d="M39.6211 24C45.0117 24 45.0117 24 45.5508 24.375C45.8457 24.7243 46.0104 24.9435 46.0138 25.4082C46.0146 25.4871 46.0154 25.5659 46.0162 25.6471C46.0166 25.7338 46.0169 25.8205 46.0173 25.9098C46.0184 26.0466 46.0184 26.0466 46.0196 26.1861C46.0218 26.4889 46.0233 26.7917 46.0246 27.0945C46.025 27.1978 46.0255 27.3012 46.026 27.4077C46.0284 27.955 46.0302 28.5023 46.0315 29.0497C46.0329 29.6146 46.037 30.1795 46.0415 30.7444C46.0446 31.179 46.0456 31.6137 46.0461 32.0483C46.0467 32.2565 46.0481 32.4647 46.0502 32.6729C46.0531 32.9648 46.0531 33.2567 46.0524 33.5486C46.0539 33.6342 46.0554 33.7197 46.0569 33.8079C46.0522 34.3084 45.966 34.6543 45.7174 35.0828C44.2609 36.5447 40.5721 35.625 39.6211 35.625C39.6211 31.7888 39.6211 27.9525 39.6211 24Z" fill="#7D6599"/>
<path d="M9.52344 24C9.52344 27.8053 9.52344 31.6106 9.52344 35.5313C4.04297 35.5313 4.04297 35.5313 3.32422 34.875C3.07467 34.4632 3.11734 33.9869 3.117 33.513C3.11626 33.4236 3.11551 33.3342 3.11474 33.2421C3.11257 32.9469 3.11178 32.6518 3.11119 32.3566C3.11038 32.151 3.10957 31.9453 3.10873 31.7397C3.10725 31.3087 3.10656 30.8777 3.1063 30.4467C3.10582 29.8953 3.10243 29.344 3.09833 28.7927C3.09565 28.3679 3.095 27.9432 3.09491 27.5185C3.09454 27.3153 3.09342 27.112 3.09154 26.9088C3.08912 26.6241 3.08956 26.3395 3.09068 26.0547C3.08935 25.9713 3.08802 25.888 3.08664 25.8021C3.09298 25.2358 3.20547 24.7884 3.59375 24.375C5.31304 23.3498 7.54325 24 9.52344 24Z" fill="#7D6599"/>
<path d="M24.8867 39.1875C24.9715 39.202 25.0562 39.2165 25.1436 39.2314C26.3441 39.4464 27.7024 39.8515 28.4805 40.901C28.6267 41.1639 28.6304 41.3302 28.5703 41.625C28.1744 42.4512 27.4469 42.8119 26.6467 43.1104C23.8976 44.0343 20.8003 44.1961 17.9688 43.5938C17.9 43.5797 17.8312 43.5657 17.7603 43.5512C16.6241 43.3146 15.5312 43.0034 14.6445 42.1875C14.5953 42.144 14.5461 42.1005 14.4954 42.0557C14.3438 41.8676 14.3226 41.7389 14.2964 41.4961C14.2874 41.4258 14.2783 41.3554 14.269 41.283C14.2972 40.8984 14.4745 40.6676 14.746 40.4176C15.2619 40.0451 15.7544 39.7641 16.3516 39.5625C16.4441 39.5308 16.5366 39.4992 16.632 39.4666C19.2658 38.6515 22.1997 38.7183 24.8867 39.1875Z" fill="#F4EDC8"/>
<path d="M34.8594 35.5312C35.9267 35.5312 36.9941 35.5312 38.0938 35.5312C38.0938 39.3984 38.0938 43.2656 38.0938 47.25C37.0264 47.25 35.9591 47.25 34.8594 47.25C34.8594 43.3828 34.8594 39.5156 34.8594 35.5312Z" fill="#F1991F"/>
<path d="M4.76172 35.625C5.79941 35.625 6.83711 35.625 7.90625 35.625C7.90625 39.4303 7.90625 43.2356 7.90625 47.1562C6.86855 47.1562 5.83086 47.1562 4.76172 47.1562C4.76172 43.3509 4.76172 39.5456 4.76172 35.625Z" fill="#F29C1F"/>
<path d="M33.332 0.84375C34.3697 0.84375 35.4074 0.84375 36.4766 0.84375C36.4766 3.56625 36.4766 6.28875 36.4766 9.09375C35.4389 9.09375 34.4012 9.09375 33.332 9.09375C33.332 6.37125 33.332 3.64875 33.332 0.84375Z" fill="#67B9CC"/>
<path d="M6.37891 0.84375C7.4166 0.84375 8.4543 0.84375 9.52344 0.84375C9.52344 3.56625 9.52344 6.28875 9.52344 9.09375C8.48574 9.09375 7.44805 9.09375 6.37891 9.09375C6.37891 6.37125 6.37891 3.64875 6.37891 0.84375Z" fill="#66B8CC"/>
<path d="M9.52344 24C10.0571 24 10.5908 24 11.1406 24C11.1406 27.8362 11.1406 31.6725 11.1406 35.625C10.607 35.625 10.0733 35.625 9.52344 35.625C9.52344 31.7888 9.52344 27.9525 9.52344 24Z" fill="#B298C8"/>
<path d="M38.0938 24C38.5978 24 39.1018 24 39.6211 24C39.6211 27.8362 39.6211 31.6725 39.6211 35.625C39.1171 35.625 38.613 35.625 38.0938 35.625C38.0938 31.7888 38.0938 27.9525 38.0938 24Z" fill="#B499C9"/>
</g>
<defs>
<clipPath id="clip0_445_4561">
<rect width="46" height="48" fill="white"/>
</clipPath>
</defs>
</svg>
