<svg width="48" height="48" viewBox="0 0 48 48" fill="none" xmlns="http://www.w3.org/2000/svg">
<g clip-path="url(#clip0_445_5177)">
<path d="M23.6795 -0.0366951C23.9468 -0.0351869 24.214 -0.0366919 24.4814 -0.0384804C25.3724 -0.0398 26.2533 -0.00149007 27.1381 0.107638C27.2183 0.116178 27.2985 0.124717 27.3812 0.133516C27.9504 0.214036 28.3097 0.406324 28.6875 0.843722C28.9306 1.2441 28.9073 1.68095 28.9138 2.13754C28.9165 2.25516 28.9165 2.25516 28.9193 2.37515C28.9249 2.62443 28.9293 2.87371 28.9336 3.12302C28.9372 3.29252 28.9408 3.46201 28.9446 3.6315C28.9536 4.04598 28.9614 4.46046 28.9688 4.87497C29.0735 4.90473 29.1782 4.93449 29.2861 4.96515C30.0227 5.17663 30.7495 5.38827 31.4531 5.69528C31.5258 5.72609 31.5984 5.75689 31.6732 5.78862C32.279 6.05133 32.8597 6.35684 33.4285 6.69202C33.6331 6.81226 33.6331 6.81226 33.9375 6.93747C34.307 6.82301 34.5331 6.5436 34.7944 6.26987C34.888 6.17345 34.9816 6.07708 35.0753 5.98075C35.2212 5.82961 35.3668 5.67815 35.5115 5.52589C36.6483 4.33363 36.6483 4.33363 37.4101 4.30538C37.8803 4.33655 38.1668 4.49693 38.5313 4.78122C38.6006 4.83464 38.67 4.88805 38.7415 4.94309C39.2406 5.33336 39.7156 5.74549 40.1832 6.17282C40.3852 6.35586 40.591 6.53273 40.7988 6.70896C41.1053 6.97631 41.371 7.26257 41.6334 7.57285C41.8411 7.8145 42.0582 8.04615 42.2754 8.27927C43.6538 9.79442 43.6538 9.79442 43.6985 10.6054C43.691 10.6634 43.6835 10.7215 43.6758 10.7812C43.6697 10.8392 43.6637 10.8972 43.6575 10.957C43.4905 11.4789 43.0938 11.8701 42.7105 12.2453C42.6395 12.3159 42.6395 12.3159 42.567 12.388C42.4175 12.5364 42.2674 12.6842 42.1172 12.832C42.015 12.9333 41.9128 13.0346 41.8107 13.136C41.5618 13.3828 41.3123 13.629 41.0625 13.875C41.1895 14.204 41.3325 14.5182 41.4913 14.833C42.1671 16.1921 42.7648 17.5521 43.125 19.0312C43.23 19.0326 43.3349 19.034 43.4431 19.0354C43.8342 19.0408 44.2252 19.0481 44.6162 19.0558C44.7851 19.0589 44.954 19.0616 45.123 19.0637C45.3665 19.0669 45.6098 19.0718 45.8533 19.077C45.9283 19.0776 46.0033 19.0782 46.0806 19.0788C46.6858 19.0946 47.0596 19.2251 47.509 19.6527C47.7807 20.0066 47.8334 20.372 47.8865 20.8066C47.8975 20.8881 47.9084 20.9697 47.9197 21.0537C48.0289 21.9424 48.0425 22.8303 48.0367 23.7247C48.0352 23.9998 48.0367 24.2749 48.0385 24.55C48.0397 25.4348 48.0066 26.3095 47.8923 27.1875C47.8795 27.3009 47.8795 27.3009 47.8665 27.4166C47.7835 27.969 47.5774 28.3187 47.1563 28.6875C46.7559 28.9306 46.319 28.9072 45.8624 28.9138C45.7448 28.9165 45.7448 28.9165 45.6248 28.9193C45.3755 28.9249 45.1263 28.9292 44.877 28.9336C44.7075 28.9371 44.538 28.9408 44.3685 28.9446C43.954 28.9535 43.5395 28.9614 43.125 28.9687C43.0952 29.0734 43.0655 29.1782 43.0348 29.286C42.8233 30.0227 42.6117 30.7495 42.3047 31.4531C42.2739 31.5257 42.2431 31.5984 42.2114 31.6732C41.9486 32.279 41.6431 32.8596 41.308 33.4284C41.1877 33.6331 41.1877 33.6331 41.0625 33.9375C41.177 34.307 41.4564 34.5331 41.7301 34.7944C41.8265 34.888 41.9229 34.9816 42.0192 35.0753C42.1704 35.2212 42.3218 35.3667 42.4741 35.5115C43.6663 36.6483 43.6663 36.6483 43.6946 37.41C43.6634 37.8802 43.503 38.1667 43.2188 38.5312C43.1386 38.6353 43.1386 38.6353 43.0569 38.7414C42.6648 39.2429 42.2503 39.7197 41.8209 40.1894C41.6547 40.3734 41.4955 40.5606 41.3379 40.7519C41.0897 41.0436 40.8155 41.2893 40.5238 41.5367C40.2834 41.7438 40.0525 41.9596 39.8203 42.1758C38.1948 43.6543 38.1948 43.6543 37.3945 43.6985C37.3365 43.691 37.2785 43.6835 37.2188 43.6758C37.1607 43.6697 37.1027 43.6637 37.043 43.6574C36.5211 43.4905 36.1298 43.0938 35.7546 42.7104C35.684 42.6394 35.684 42.6394 35.612 42.567C35.4636 42.4175 35.3158 42.2673 35.168 42.1172C35.0667 42.0149 34.9654 41.9128 34.864 41.8106C34.6172 41.5617 34.3709 41.3123 34.125 41.0625C33.796 41.1895 33.4818 41.3325 33.167 41.4913C31.8078 42.167 30.4479 42.7648 28.9688 43.125C28.9674 43.2299 28.966 43.3349 28.9646 43.4431C28.9592 43.8341 28.9519 44.2251 28.9441 44.6161C28.941 44.7851 28.9384 44.954 28.9363 45.123C28.9331 45.3664 28.9282 45.6098 28.923 45.8532C28.9224 45.9283 28.9218 46.0033 28.9212 46.0806C28.9093 46.5372 28.8421 46.8529 28.5938 47.25C28.1072 47.7109 27.6101 47.8426 26.9575 47.9161C26.8885 47.924 26.8195 47.9318 26.7484 47.9399C25.9295 48.0248 25.1106 48.0315 24.288 48.0296C24.025 48.0293 23.7621 48.0315 23.499 48.0338C22.6149 48.0372 21.7417 48.0011 20.8638 47.8927C20.7834 47.8841 20.7031 47.8755 20.6203 47.8667C20.0505 47.7861 19.6907 47.5942 19.3125 47.1562C19.0694 46.7558 19.0927 46.319 19.0862 45.8624C19.0844 45.784 19.0826 45.7056 19.0807 45.6248C19.0751 45.3755 19.0707 45.1262 19.0664 44.8769C19.0628 44.7074 19.0592 44.5379 19.0554 44.3684C19.0464 43.954 19.0386 43.5395 19.0313 43.125C18.953 43.1011 18.953 43.1011 18.8731 43.0767C17.3929 42.624 16.0026 42.1272 14.6572 41.3508C14.5494 41.2907 14.5494 41.2907 14.4393 41.2295C14.3756 41.1928 14.3119 41.1561 14.2463 41.1183C14.0631 41.0443 14.0631 41.0443 13.8816 41.1158C13.6235 41.2942 13.4223 41.5031 13.2056 41.7301C13.112 41.8265 13.0184 41.9229 12.9247 42.0192C12.7788 42.1703 12.6332 42.3218 12.4885 42.4741C11.3517 43.6663 11.3517 43.6663 10.59 43.6946C9.83931 43.6448 9.295 43.0933 8.73633 42.6386C8.63721 42.5581 8.63721 42.5581 8.53608 42.4759C8.03472 42.0637 7.57138 41.6274 7.125 41.1562C6.90256 40.9313 6.67913 40.7089 6.44824 40.4926C5.93707 40.006 5.49387 39.4875 5.0625 38.9297C5.00963 38.8621 4.95676 38.7945 4.90228 38.7249C4.55415 38.2663 4.24635 37.8216 4.32422 37.2187C4.33026 37.1607 4.33631 37.1027 4.34253 37.0429C4.50946 36.521 4.90616 36.1298 5.28955 35.7546C5.33688 35.7075 5.38421 35.6605 5.43298 35.612C5.58248 35.4635 5.73263 35.3157 5.88281 35.1679C5.98503 35.0667 6.0872 34.9653 6.18933 34.864C6.43823 34.6171 6.6877 34.3709 6.9375 34.125C6.81051 33.796 6.66746 33.4818 6.50867 33.167C5.83295 31.8078 5.23521 30.4479 4.875 28.9687C4.77003 28.9674 4.66506 28.966 4.5569 28.9646C4.16585 28.9591 3.77485 28.9519 3.38384 28.9441C3.2149 28.941 3.04595 28.9384 2.877 28.9362C2.63354 28.9331 2.39016 28.9282 2.14673 28.9229C2.07171 28.9223 1.99669 28.9217 1.91939 28.9211C1.46281 28.9092 1.14708 28.8421 0.750001 28.5937C-0.245259 27.5432 -0.0325748 25.6517 -0.0295931 24.3036C-0.0292973 24.0251 -0.0315035 23.7467 -0.0338732 23.4682C-0.037114 22.5767 -0.00816245 21.6957 0.107301 20.811C0.115864 20.7355 0.124427 20.66 0.133249 20.5822C0.21652 20.0305 0.423251 19.6808 0.843751 19.3125C1.24413 19.0694 1.68098 19.0927 2.13757 19.0862C2.25519 19.0834 2.25519 19.0834 2.37518 19.0807C2.62446 19.0751 2.87374 19.0707 3.12305 19.0664C3.29254 19.0628 3.46204 19.0591 3.63153 19.0554C4.04601 19.0464 4.46049 19.0385 4.875 19.0312C4.90476 18.9265 4.93452 18.8218 4.96518 18.7139C5.17666 17.9773 5.3883 17.2504 5.69531 16.5468C5.72612 16.4742 5.75692 16.4016 5.78865 16.3267C6.05136 15.721 6.35687 15.1403 6.69205 14.5715C6.81229 14.3669 6.81229 14.3669 6.9375 14.0625C6.82304 13.693 6.54363 13.4669 6.2699 13.2055C6.17348 13.112 6.07711 13.0183 5.98078 12.9247C5.82964 12.7787 5.67818 12.6332 5.52592 12.4885C4.33366 11.3516 4.33366 11.3516 4.30541 10.5899C4.33658 10.1197 4.49696 9.8332 4.78125 9.46872C4.83467 9.39935 4.88808 9.32999 4.94312 9.25852C5.33339 8.7594 5.74552 8.28433 6.17285 7.81674C6.35589 7.61481 6.53276 7.40901 6.70899 7.20114C6.97634 6.89463 7.2626 6.629 7.57288 6.36655C7.81453 6.15887 8.04618 5.94179 8.2793 5.72458C9.79445 4.34621 9.79445 4.34621 10.6055 4.30149C10.6635 4.30898 10.7215 4.31647 10.7813 4.32419C10.8393 4.33023 10.8973 4.33628 10.957 4.3425C11.4789 4.50943 11.8702 4.90613 12.2454 5.28952C12.2924 5.33685 12.3395 5.38418 12.388 5.43295C12.5364 5.58245 12.6842 5.7326 12.832 5.88278C12.9333 5.985 13.0346 6.08717 13.136 6.1893C13.3828 6.4382 13.6291 6.68767 13.875 6.93747C14.204 6.81048 14.5182 6.66743 14.833 6.50864C16.1922 5.83292 17.5521 5.23518 19.0313 4.87497C19.0326 4.77 19.034 4.66503 19.0354 4.55687C19.0408 4.16582 19.0481 3.77482 19.0559 3.38381C19.059 3.21487 19.0616 3.04592 19.0637 2.87697C19.0669 2.63351 19.0718 2.39013 19.077 2.1467C19.0776 2.07168 19.0782 1.99666 19.0788 1.91936C19.0946 1.31424 19.2252 0.94044 19.6525 0.490923C20.0072 0.218656 20.3744 0.166513 20.8099 0.113497C20.8916 0.102518 20.9732 0.0915384 21.0573 0.0802263C21.93 -0.0270858 22.8013 -0.0425574 23.6795 -0.0366951ZM18.6563 18C18.5782 18.0692 18.5001 18.1385 18.4197 18.2098C16.886 19.6515 16.0469 21.6524 15.9379 23.7444C15.9357 25.8345 16.5958 27.7732 18 29.3437C18.1039 29.4608 18.1039 29.4608 18.2098 29.5803C19.6772 31.1414 21.6979 31.9595 23.8235 32.0621C25.8791 32.0642 27.8038 31.3769 29.3438 30C29.4218 29.9307 29.4999 29.8615 29.5803 29.7901C31.114 28.3485 31.9531 26.3475 32.0621 24.2556C32.0643 22.1655 31.4042 20.2267 30 18.6562C29.9308 18.5782 29.8615 18.5001 29.7902 18.4196C28.3228 16.8586 26.3021 16.0404 24.1765 15.9378C22.1209 15.9358 20.1962 16.623 18.6563 18Z" fill="#8A9AA8"/>
<path d="M23.2531 10.1162C25.1399 10.0341 27.1114 10.2703 28.875 10.9688C28.9467 10.9969 29.0183 11.025 29.0922 11.054C32.6423 12.4788 35.3309 15.1866 36.873 18.6738C37.9507 21.3084 38.1331 24.1241 37.5937 26.9063C37.5649 27.0569 37.5649 27.0569 37.5355 27.2106C36.7657 30.6579 34.5536 33.7379 31.6095 35.6624C30.4759 36.3804 29.3127 36.9175 28.0312 37.3125C27.9146 37.3491 27.798 37.3857 27.6779 37.4235C24.169 38.4436 20.405 37.8587 17.2165 36.163C14.0165 34.3976 11.681 31.3661 10.6542 27.8743C9.66032 24.29 10.0327 20.4974 11.8347 17.2272C12.3144 16.3913 12.8642 15.6314 13.5 14.9063C13.5961 14.7915 13.5961 14.7915 13.6941 14.6745C15.855 12.1587 19.1945 10.4866 22.4883 10.1484C22.7432 10.1349 22.9981 10.128 23.2531 10.1162ZM18.6562 18C18.5782 18.0693 18.5001 18.1385 18.4197 18.2099C16.886 19.6515 16.0469 21.6524 15.9379 23.7444C15.9357 25.8345 16.5958 27.7733 18 29.3438C18.1039 29.4609 18.1039 29.4609 18.2098 29.5803C19.6772 31.1414 21.6979 31.9596 23.8235 32.0621C25.8791 32.0642 27.8038 31.377 29.3437 30C29.4218 29.9308 29.4999 29.8615 29.5803 29.7902C31.114 28.3485 31.9531 26.3476 32.0621 24.2556C32.0643 22.1655 31.4042 20.2268 30 18.6563C29.9308 18.5782 29.8615 18.5001 29.7902 18.4197C28.3228 16.8586 26.3021 16.0404 24.1765 15.9379C22.1209 15.9358 20.1962 16.623 18.6562 18Z" fill="#6C7A88"/>
<path d="M40.7812 13.9688C41.1191 14.1025 41.2342 14.2409 41.3954 14.5631C41.4374 14.6465 41.4794 14.7298 41.5226 14.8157C41.5661 14.9055 41.6095 14.9953 41.6543 15.0879C41.6996 15.1801 41.7448 15.2723 41.7914 15.3672C42.3626 16.5525 42.791 17.7601 43.125 19.0312C43.23 19.0326 43.3349 19.034 43.4431 19.0354C43.8342 19.0408 44.2252 19.0481 44.6162 19.0559C44.7851 19.059 44.954 19.0616 45.123 19.0637C45.3665 19.0669 45.6098 19.0718 45.8533 19.077C45.9283 19.0776 46.0033 19.0782 46.0806 19.0788C46.6858 19.0946 47.0596 19.2251 47.509 19.6527C47.7807 20.0067 47.8334 20.3721 47.8865 20.8066C47.8975 20.8882 47.9084 20.9697 47.9197 21.0537C48.0289 21.9424 48.0425 22.8304 48.0367 23.7247C48.0352 23.9999 48.0367 24.2749 48.0385 24.55C48.0397 25.4348 48.0066 26.3096 47.8923 27.1875C47.8838 27.2631 47.8753 27.3387 47.8665 27.4166C47.7835 27.969 47.5774 28.3188 47.1562 28.6875C46.7559 28.9306 46.319 28.9073 45.8624 28.9138C45.7448 28.9165 45.7448 28.9165 45.6248 28.9193C45.3755 28.9249 45.1263 28.9293 44.877 28.9336C44.7075 28.9372 44.538 28.9408 44.3685 28.9446C43.954 28.9536 43.5395 28.9614 43.125 28.9688C43.0952 29.0735 43.0655 29.1782 43.0348 29.2861C42.8233 30.0227 42.6117 30.7495 42.3047 31.4531C42.2739 31.5258 42.2431 31.5984 42.2113 31.6732C41.9486 32.279 41.6431 32.8597 41.308 33.4285C41.1877 33.6331 41.1877 33.6331 41.0625 33.9375C41.177 34.307 41.4564 34.5331 41.7301 34.7944C41.8265 34.888 41.9229 34.9816 42.0192 35.0753C42.1704 35.2212 42.3218 35.3668 42.4741 35.5115C43.6663 36.6483 43.6663 36.6483 43.6946 37.41C43.6634 37.8803 43.503 38.1668 43.2188 38.5312C43.1386 38.6353 43.1386 38.6353 43.0569 38.7415C42.6648 39.2429 42.2503 39.7197 41.8209 40.1895C41.6547 40.3734 41.4955 40.5606 41.3379 40.752C41.0897 41.0436 40.8155 41.2893 40.5238 41.5367C40.2834 41.7438 40.0525 41.9596 39.8203 42.1758C38.1948 43.6544 38.1948 43.6544 37.3945 43.6985C37.3365 43.691 37.2785 43.6835 37.2188 43.6758C37.1607 43.6697 37.1027 43.6637 37.043 43.6575C36.5211 43.4905 36.1298 43.0938 35.7546 42.7104C35.684 42.6395 35.684 42.6395 35.612 42.567C35.4636 42.4175 35.3158 42.2674 35.168 42.1172C35.0667 42.015 34.9654 41.9128 34.864 41.8107C34.6172 41.5618 34.3709 41.3123 34.125 41.0625C33.796 41.1895 33.4818 41.3325 33.167 41.4913C31.8078 42.1671 30.4479 42.7648 28.9688 43.125C28.9674 43.23 28.966 43.3349 28.9646 43.4431C28.9592 43.8342 28.9519 44.2252 28.9441 44.6162C28.941 44.7851 28.9384 44.954 28.9363 45.123C28.9331 45.3665 28.9282 45.6098 28.923 45.8533C28.9224 45.9283 28.9218 46.0033 28.9212 46.0806C28.9093 46.5372 28.8421 46.8529 28.5938 47.25C28.1072 47.7109 27.6101 47.8426 26.9575 47.9161C26.8885 47.924 26.8195 47.9319 26.7484 47.94C25.9295 48.0248 25.1106 48.0315 24.288 48.0296C24.025 48.0293 23.762 48.0315 23.499 48.0339C22.6149 48.0373 21.7417 48.0012 20.8638 47.8927C20.7834 47.8841 20.7031 47.8756 20.6203 47.8668C20.0505 47.7861 19.6907 47.5942 19.3125 47.1562C19.0694 46.7559 19.0927 46.319 19.0862 45.8624C19.0844 45.784 19.0826 45.7056 19.0807 45.6248C19.0751 45.3755 19.0707 45.1263 19.0664 44.877C19.0628 44.7075 19.0592 44.538 19.0554 44.3685C19.0464 43.954 19.0386 43.5395 19.0312 43.125C18.953 43.1011 18.953 43.1011 18.8731 43.0767C17.1722 42.5565 15.6244 41.9158 14.0625 41.0625C14.0625 40.9387 14.0625 40.815 14.0625 40.6875C15.1868 39.7421 16.4219 39.5602 17.8387 39.6293C18.4772 39.6967 19.0737 39.9368 19.6748 40.151C20.1677 40.3177 20.6759 40.4113 21.1875 40.5C21.3468 40.5288 21.3468 40.5288 21.5094 40.5582C25.7948 41.2158 30.2325 40.0943 33.75 37.5938C34.0736 37.3552 34.3837 37.1069 34.6875 36.8438C34.7629 36.7786 34.8383 36.7135 34.916 36.6464C37.0647 34.7495 38.7502 32.457 39.6819 29.729C39.751 29.5283 39.8237 29.329 39.8965 29.1295C41.0678 25.8077 41.0075 22.0259 39.8344 18.7176C39.4874 17.6742 39.4489 16.2874 39.9375 15.2812C40.1855 14.8177 40.4613 14.3858 40.7812 13.9688Z" fill="#6B7988"/>
<path d="M33.75 14.25C34.1328 14.3963 34.3564 14.6695 34.6113 14.9766C34.6565 15.0307 34.7017 15.0849 34.7482 15.1407C35.2201 15.7178 35.6231 16.3264 36 16.9688C36.0355 17.0286 36.0711 17.0885 36.1077 17.1503C37.8421 20.115 38.2418 23.563 37.5938 26.9062C37.5649 27.0569 37.5649 27.0569 37.5355 27.2106C36.7657 30.6578 34.5536 33.7379 31.6095 35.6624C30.4759 36.3804 29.3127 36.9175 28.0312 37.3125C27.9146 37.3491 27.798 37.3857 27.6779 37.4235C24.1694 38.4435 20.4045 37.859 17.2164 36.1628C16.1196 35.558 15.1681 34.7868 14.25 33.9375C14.4691 33.4189 14.8941 33.2287 15.3882 33.0015C16.224 32.6828 17.0091 32.7337 17.8323 33.063C18.1051 33.1929 18.3575 33.3404 18.6152 33.498C19.7922 34.2061 21.0524 34.5928 22.4062 34.7812C22.5244 34.7983 22.6426 34.8153 22.7644 34.8329C25.611 35.1764 28.3454 34.3968 30.627 32.6777C30.7628 32.5677 30.8975 32.4563 31.0312 32.3438C31.1073 32.2803 31.1833 32.2169 31.2616 32.1515C33.2766 30.4088 34.5935 27.8684 34.875 25.2188C34.9211 24.5612 34.9113 23.9077 34.875 23.25C34.8696 23.15 34.8696 23.15 34.864 23.048C34.7537 21.3695 34.1685 19.8395 33.375 18.375C33.2824 18.1977 33.1904 18.02 33.0996 17.8418C33.064 17.7738 33.0283 17.7057 32.9916 17.6356C32.6952 16.9474 32.7351 16.1872 32.9766 15.4922C33.168 15.0122 33.382 14.618 33.75 14.25Z" fill="#596775"/>
</g>
<defs>
<clipPath id="clip0_445_5177">
<rect width="48" height="48" fill="white"/>
</clipPath>
</defs>
</svg>
